<?xml version="1.0" encoding="UTF-8" standalone="no"?>
<!-- Created with Inkscape (http://www.inkscape.org/) -->

<svg
   width="400mm"
   height="100mm"
   viewBox="0 0 400 100"
   version="1.1"
   id="svg393"
   inkscape:version="1.2 (dc2aeda, 2022-05-15)"
   sodipodi:docname="FC6Logo.svg"
   xmlns:inkscape="http://www.inkscape.org/namespaces/inkscape"
   xmlns:sodipodi="http://sodipodi.sourceforge.net/DTD/sodipodi-0.dtd"
   xmlns="http://www.w3.org/2000/svg"
   xmlns:svg="http://www.w3.org/2000/svg">
  <sodipodi:namedview
     id="namedview395"
     pagecolor="#ffffff"
     bordercolor="#000000"
     borderopacity="0.25"
     inkscape:showpageshadow="2"
     inkscape:pageopacity="0.0"
     inkscape:pagecheckerboard="0"
     inkscape:deskcolor="#d1d1d1"
     inkscape:document-units="mm"
     showgrid="false"
     inkscape:zoom="0.5028719"
     inkscape:cx="605.52201"
     inkscape:cy="519.01886"
     inkscape:window-width="1728"
     inkscape:window-height="1052"
     inkscape:window-x="0"
     inkscape:window-y="65"
     inkscape:window-maximized="0"
     inkscape:current-layer="g164" />
  <defs
     id="defs390" />
  <g
     inkscape:label="Layer 1"
     inkscape:groupmode="layer"
     id="layer1">
    <g
       id="g148"
       transform="matrix(0.38556976,0,0,0.38556976,3.97537,11.315906)">
      <path
         class="cls-1"
         d="m 128.34,106.6 c -0.72,0.56 -1.42,1.15 -2.08,1.81 -8.79,8.79 -8.79,23.03 0,31.82 8.79,8.79 23.03,8.79 31.82,0 0.66,-0.66 1.25,-1.36 1.81,-2.08 l 0.13,0.13 c 0,0 0,-0.11 0,-0.3 4.24,-5.53 3.46,-12.38 3.98,-19.03 0.4,-5.14 2.98,-11.77 7.46,-16.25 4.52,-4.52 11.24,-7.03 16.41,-7.43 6.41,-0.49 13,0.26 18.41,-3.67 0.24,-0.18 0,0 0,0 l 0.24,-0.18 c 0.86,-0.64 1.7,-1.33 2.48,-2.11 8.79,-8.79 8.79,-23.03 0,-31.82 -0.84,-0.84 -1.75,-1.58 -2.69,-2.26 v 0 l -0.33,-0.24 c -5.04,-3.54 -11.12,-3.19 -17.02,-3.7 -5.9,-0.51 -12.93,-2.96 -17.49,-7.53 -4.41,-4.41 -6.95,-11.02 -7.4,-16.17 -0.57,-6.64 0.11,-13.51 -4.21,-18.99 v 0 l -0.11,-0.14 c -0.52,-0.65 -1.07,-1.27 -1.66,-1.87 -8.79,-8.79 -23.03,-8.79 -31.82,0 -6.08,6.08 -4.67,12.48 -5.62,20.45 -0.81,6.83 -4.06,12.06 -8.32,16.31 -4.38,4.38 -9.68,7.1 -13.78,7.45 -7.91,0.67 -17.19,0.68 -23.2,6.69 -8.79,8.79 -8.79,23.03 0,31.82 8.79,8.79 23.03,8.79 31.82,0 0.81,-0.81 1.64,-1.65 1.98,-2.12 0.25,-0.34 0.45,-0.63 0.45,-0.63 0,0 0.11,-0.16 0.63,-1.09 2.87,-4.5 2.77,-9.77 3.33,-14.89 0.63,-5.81 1.93,-12.99 6.7,-17.75 4.67,-4.67 11.85,-8.05 17.2,-8.86 3.82,-0.58 6.84,-0.82 11.53,0.4 4.69,1.22 10.24,3.85 14.63,8.23 4.63,4.63 6.99,10.96 7.77,16.17 0.85,5.72 0.28,6.58 0.14,7.88 -0.61,5.52 -3.51,13.26 -7.97,17.72 -4.51,4.51 -11.2,7.56 -16.44,8.01 -6.49,0.56 -13.19,-0.07 -18.59,4.07"
         id="path136"
         style="fill:#2e85ba" />
      <path
         d="m 155.83,157.38 -0.41,-0.3 c -5.38,-3.93 -10.94,-4.23 -17.31,-4.75 -5.11,-0.42 -11.74,-2.88 -16.2,-7.35 -6.34,-6.34 -9.07,-13.66 -9.23,-21.59 -0.11,-5.55 1.77,-13.59 7.87,-19.7 4.48,-4.48 11.11,-8.06 16.25,-8.46 6.65,-0.52 13.5,0.26 19.03,-3.98 0.19,0 0.3,0 0.3,0 L 156,91.12 c 0.72,-0.56 1.42,-1.15 2.08,-1.81 8.79,-8.79 8.79,-23.03 0,-31.82 -8.79,-8.79 -23.03,-8.79 -31.82,0 -0.66,0.66 -1.25,1.36 -1.81,2.08 l -0.13,0.18 c -4.14,5.4 -3.51,12.11 -4.07,18.59 -0.45,5.25 -4.03,12 -8.53,16.51 -5.52,5.52 -12.67,7.47 -19.27,7.61 -0.1,0 -1.39,0.05 -1.49,0.05 -0.41,0 -0.8,0 -1.19,0 -5.22,0.13 -13.27,-2.64 -19.3,-8.67 -4.38,-4.38 -6.05,-6.95 -7.65,-13.38 -0.76,-3.06 -1,-6.98 -0.2,-11.48 1.14,-6.41 3.98,-11.74 8.65,-16.41 4.67,-4.67 11.38,-7.15 17.19,-7.78 5.12,-0.56 10.39,-0.46 14.89,-3.33 0.07,-0.04 0.14,-0.09 0.14,-0.09 0.4,-0.26 1.12,-0.79 1.12,-0.79 0.9,-0.66 1.77,-1.38 2.58,-2.19 8.79,-8.79 8.79,-23.03 0,-31.82 -8.79,-8.79 -23.03,-8.79 -31.82,0 -6.01,6.01 -5.25,14.27 -5.69,22.2 -0.28,5.05 -3.86,11.57 -8.25,15.95 -4.25,4.25 -9.57,6.85 -14.52,7.15 -8.02,0.48 -16.38,-0.46 -22.45,5.62 -8.79,8.79 -8.79,23.03 0,31.82 0.6,0.6 1.23,1.15 1.87,1.66 l -0.1,0.1 c 0,0 0.09,0 0.25,0 6.36,3.88 12.4,3.27 18.99,4.21 6.2,0.88 10.47,3.31 15.17,7.4 10.4,9.02 9.09,21.85 9.09,21.85 0.17,5.8 1.17,10.68 5.55,15.69 4.06,4.63 8.95,6.58 14.72,6.58 h 2.28 c 6.55,0.05 12.7,1.32 18.8,7.01 4.44,4.14 8.22,10.77 8.78,17.33 0.63,7.4 0.78,14.34 6.42,19.98 8.79,8.79 23.03,8.79 31.82,0 8.79,-8.79 8.79,-23.03 0,-31.82 -0.71,-0.71 -1.47,-1.35 -2.25,-1.95 z"
         id="path138" />
      <circle
         class="cls-1"
         cx="193.09"
         cy="22.85"
         r="22.5"
         id="circle140"
         style="fill:#2e85ba" />
      <circle
         class="cls-1"
         cx="193.09"
         cy="124.32"
         r="22.5"
         id="circle142"
         style="fill:#2e85ba" />
      <circle
         cx="40.709999"
         cy="124.32"
         r="22.5"
         id="circle144" />
      <circle
         cx="91.269997"
         cy="175.24001"
         r="22.5"
         id="circle146" />
    </g>
    <g
       id="g164"
       transform="matrix(0.91735741,0,0,0.91735741,103.66177,-173.29144)">
      <path
         d="M -1.7206312,268.4047 V 213.98095 H 30.544878 v 10.72926 H 9.0086225 v 9.17429 H 26.812964 v 10.72925 H 9.0086225 v 23.79095 z"
         id="path150"
         style="stroke-width:1.2958" />
      <path
         d="M 34.432289,254.17678 V 229.5306 h 10.729254 v 21.69175 c 0,1.37355 0.32395,2.60457 0.984811,3.71896 0.660859,1.10143 1.542005,1.96962 2.669355,2.61752 1.114391,0.6479 2.332446,0.97186 3.654165,0.97186 1.32172,0 2.578649,-0.32396 3.69304,-0.97186 1.114392,-0.6479 1.995538,-1.51609 2.64344,-2.61752 0.647902,-1.10143 0.971852,-2.33245 0.971852,-3.71896 V 229.5306 H 70.50746 l 0.03888,38.8741 H 59.817081 l -0.03888,-2.95442 c -1.295803,1.24397 -2.811894,2.21582 -4.561228,2.91556 -1.749335,0.69972 -3.589376,1.0496 -5.533081,1.0496 -2.798935,0 -5.351669,-0.68678 -7.6582,-2.06033 -2.30653,-1.37356 -4.146571,-3.21359 -5.520122,-5.50716 -1.373552,-2.29358 -2.060329,-4.85927 -2.060329,-7.68413 z"
         id="path152"
         style="stroke-width:1.2958" />
      <path
         d="m 114.4352,243.68077 v 24.72393 h -10.72925 v -21.76949 c 0,-1.37355 -0.32395,-2.60456 -0.99777,-3.71895 -0.66086,-1.10144 -1.54201,-1.96962 -2.64344,-2.63048 -1.101433,-0.64791 -2.319488,-0.97186 -3.667125,-0.97186 -1.347635,0 -2.578648,0.32395 -3.693039,0.97186 -1.114391,0.6479 -1.995538,1.52904 -2.64344,2.63048 -0.647901,1.10143 -0.971852,2.3454 -0.971852,3.71895 V 268.4047 H 78.36003 l -0.03888,-38.8741 h 10.72926 l 0.03888,2.87669 c 1.295803,-1.24398 2.811894,-2.21583 4.561229,-2.91556 1.749334,-0.69974 3.589376,-1.0496 5.53308,-1.0496 2.824851,0 5.390541,0.68678 7.671151,2.06032 2.29358,1.37355 4.13362,3.20064 5.50716,5.50717 1.37356,2.29357 2.06033,4.85926 2.06033,7.67115 z"
         id="path154"
         style="stroke-width:1.2958" />
      <path
         d="m 147.40044,269.4284 c -3.68007,0 -7.13988,-0.73862 -10.37938,-2.20287 -3.23951,-1.46426 -6.09028,-3.48572 -8.52639,-6.09028 -2.44907,-2.5916 -4.36685,-5.58491 -5.75337,-8.99288 -1.38651,-3.40796 -2.07328,-7.06213 -2.07328,-10.94954 0,-3.88741 0.68677,-7.56749 2.07328,-10.97545 1.38652,-3.40796 3.3043,-6.40128 5.75337,-8.97992 2.44907,-2.57866 5.28688,-4.6001 8.52639,-6.06436 3.2395,-1.46426 6.69931,-2.20287 10.37938,-2.20287 4.40574,0 8.4616,1.02368 12.1676,3.0581 3.706,2.03441 6.77705,4.7556 9.21316,8.15061 l -9.56303,5.17025 c -1.45129,-1.71046 -3.20063,-3.07106 -5.248,-4.1077 -2.04737,-1.02368 -4.23728,-1.52904 -6.56973,-1.52904 -2.20286,0 -4.27614,0.45353 -6.21985,1.36059 -1.94371,0.90706 -3.65416,2.16399 -5.11843,3.77079 -1.46425,1.6068 -2.60456,3.45979 -3.44683,5.55899 -0.82932,2.0992 -1.24398,4.36686 -1.24398,6.80297 0,2.43611 0.41466,4.67785 1.24398,6.79001 0.82931,2.11216 1.98258,3.96516 3.44683,5.559 1.46427,1.59384 3.17472,2.85077 5.11843,3.77079 1.94371,0.92002 4.01699,1.38651 6.21985,1.38651 2.35837,0 4.54828,-0.51833 6.58269,-1.55496 2.03441,-1.03664 3.78375,-2.4102 5.23504,-4.12066 l 9.56303,5.20913 c -2.43611,3.36909 -5.50716,6.07732 -9.21316,8.12469 -3.706,2.04736 -7.76186,3.07105 -12.1676,3.07105 z"
         id="path156"
         style="stroke-width:1.2958" />
      <path
         d="m 194.43811,269.4284 c -3.57642,0 -6.84184,-0.92003 -9.77036,-2.76007 -2.94147,-1.84004 -5.28687,-4.31502 -7.0362,-7.412 -1.74934,-3.09697 -2.63048,-6.51788 -2.63048,-10.27571 0,-2.85078 0.50535,-5.50717 1.51608,-7.99512 1.01073,-2.47498 2.4102,-4.65193 4.18545,-6.53084 1.77525,-1.87892 3.83558,-3.34317 6.20689,-4.4187 2.35837,-1.06256 4.87222,-1.59383 7.54158,-1.59383 3.57642,0 6.84185,0.92001 9.77037,2.76006 2.9285,1.84004 5.28687,4.31503 7.03621,7.42495 1.74933,3.10993 2.61752,6.55677 2.61752,10.34052 0,2.82485 -0.50536,5.46829 -1.51609,7.93031 -1.01072,2.46203 -2.41019,4.63898 -4.17249,6.50494 -1.77525,1.87891 -3.83558,3.35613 -6.18099,4.41869 -2.3454,1.06255 -4.85926,1.59384 -7.55453,1.59384 z m 0,-10.72926 c 1.65863,0 3.1488,-0.44057 4.47052,-1.34764 1.32172,-0.8941 2.35837,-2.07328 3.10993,-3.56345 0.75157,-1.47722 1.12735,-3.08402 1.12735,-4.82039 0,-1.73639 -0.38874,-3.42093 -1.17917,-4.9111 -0.79045,-1.49018 -1.853,-2.66935 -3.17472,-3.56346 -1.32172,-0.88114 -2.77303,-1.32171 -4.35391,-1.32171 -1.58087,0 -3.10993,0.45352 -4.43165,1.36058 -1.32171,0.90706 -2.37131,2.09921 -3.13584,3.57642 -0.76452,1.47722 -1.14031,3.09697 -1.14031,4.85927 0,1.76229 0.38875,3.49867 1.19214,4.96292 0.79045,1.46426 1.84005,2.61753 3.17472,3.47276 1.32172,0.85523 2.77302,1.28284 4.3539,1.28284 z"
         id="path158"
         style="stroke-width:1.2958" />
      <path
         d="M 219.31755,254.17678 V 229.5306 h 10.72925 v 21.69175 c 0,1.37355 0.32395,2.60457 0.99776,3.71896 0.66086,1.10143 1.54201,1.96962 2.6564,2.61752 1.11439,0.6479 2.33245,0.97186 3.65417,0.97186 1.32172,0 2.57864,-0.32396 3.69304,-0.97186 1.11439,-0.6479 1.99553,-1.51609 2.64344,-2.61752 0.6479,-1.10143 0.97185,-2.33245 0.97185,-3.71896 V 229.5306 h 10.72925 l 0.0388,38.8741 H 244.7023 l -0.0388,-2.95442 c -1.2958,1.24397 -2.81189,2.21582 -4.57418,2.91556 -1.74933,0.69972 -3.58938,1.0496 -5.53308,1.0496 -2.79894,0 -5.35167,-0.68678 -7.6582,-2.06033 -2.30654,-1.37356 -4.14658,-3.21359 -5.52012,-5.50716 -1.37356,-2.29358 -2.06033,-4.85927 -2.06033,-7.68413 z"
         id="path160"
         style="stroke-width:1.2958" />
      <path
         d="M 273.93567,287.84176 H 263.20641 V 229.5306 h 10.72926 v 4.19841 c 1.24396,-1.52905 2.72119,-2.78599 4.43164,-3.75783 1.71046,-0.97186 3.706,-1.45131 5.98661,-1.45131 2.82486,0 5.4683,0.53129 7.94329,1.59384 2.47498,1.06256 4.63897,2.53978 6.51788,4.41869 1.86596,1.87892 3.33021,4.04291 4.39278,6.50494 1.06256,2.46202 1.59384,5.10546 1.59384,7.93032 0,2.82485 -0.53128,5.48124 -1.59384,7.96919 -1.06257,2.48794 -2.52682,4.66489 -4.39278,6.54381 -1.86595,1.87891 -4.0429,3.34317 -6.51788,4.41869 -2.47499,1.06256 -5.13139,1.59384 -7.94329,1.59384 -2.28061,0 -4.27615,-0.49241 -5.98661,-1.47722 -1.71045,-0.98481 -3.18768,-2.22879 -4.43164,-3.73192 z m 10.26276,-49.02025 c -1.76229,0 -3.34317,0.46649 -4.7556,1.38651 -1.41242,0.92003 -2.52681,2.15104 -3.34318,3.66712 -0.81635,1.5161 -1.231,3.22656 -1.231,5.09252 0,1.86595 0.41465,3.56346 1.231,5.11842 0.81637,1.54201 1.93076,2.76006 3.34318,3.66712 1.41243,0.90707 2.99331,1.3606 4.7556,1.3606 1.76229,0 3.38205,-0.45353 4.8463,-1.3606 1.46427,-0.90706 2.63048,-2.12511 3.49868,-3.65416 0.86819,-1.52906 1.2958,-3.23951 1.2958,-5.13138 0,-1.89188 -0.42761,-3.52459 -1.28285,-5.07956 -0.85523,-1.542 -2.02145,-2.77301 -3.47275,-3.69303 -1.46426,-0.92003 -3.09697,-1.38652 -4.88518,-1.38652 z"
         id="path162"
         style="stroke-width:1.2958" />
    </g>
  </g>
</svg>
