<?xml version="1.0" encoding="UTF-8" standalone="no"?>
<!-- Created with Inkscape (http://www.inkscape.org/) -->

<svg
   version="1.1"
   id="svg132"
   width="566.9292"
   height="453.54333"
   viewBox="0 0 566.9292 453.54333"
   sodipodi:docname="FC6_logo.pdf.2023_10_06_14_23_55.0.svg"
   inkscape:export-filename="FC6_squarredLogo.png"
   inkscape:export-xdpi="300"
   inkscape:export-ydpi="300"
   inkscape:version="1.2 (dc2aeda, 2022-05-15)"
   xmlns:inkscape="http://www.inkscape.org/namespaces/inkscape"
   xmlns:sodipodi="http://sodipodi.sourceforge.net/DTD/sodipodi-0.dtd"
   xmlns="http://www.w3.org/2000/svg"
   xmlns:svg="http://www.w3.org/2000/svg">
  <defs
     id="defs136">
    <clipPath
       clipPathUnits="userSpaceOnUse"
       id="clipPath150">
      <path
         d="M 0,0 H 425.1969 V 340.1575 H 0 Z"
         id="path148" />
    </clipPath>
    <clipPath
       clipPathUnits="userSpaceOnUse"
       id="clipPath160">
      <path
         d="m 227.0426,208.127 -10.8344,8.1955 41.3156,54.6191 10.8344,-8.1955 z"
         id="path158" />
    </clipPath>
    <clipPath
       clipPathUnits="userSpaceOnUse"
       id="clipPath166">
      <path
         d="M 0,0 H 425.1969 V 340.1575 H 0 Z"
         id="path164" />
    </clipPath>
    <clipPath
       clipPathUnits="userSpaceOnUse"
       id="clipPath180">
      <path
         d="m 245.9483,170.7048 -0.9228,13.5536 73.3111,4.9914 0.9228,-13.5535 z"
         id="path178" />
    </clipPath>
    <clipPath
       clipPathUnits="userSpaceOnUse"
       id="clipPath186">
      <path
         d="M 0,0 H 425.1969 V 340.1575 H 0 Z"
         id="path184" />
    </clipPath>
    <clipPath
       clipPathUnits="userSpaceOnUse"
       id="clipPath200">
      <path
         d="m 276.9799,262.9746 10.3593,8.7884 50.4968,-59.523 -10.3593,-8.7884 z"
         id="path198" />
    </clipPath>
    <clipPath
       clipPathUnits="userSpaceOnUse"
       id="clipPath206">
      <path
         d="M 0,0 H 425.1969 V 340.1575 H 0 Z"
         id="path204" />
    </clipPath>
    <clipPath
       clipPathUnits="userSpaceOnUse"
       id="clipPath220">
      <path
         d="m 220.4555,128.699 8.9194,10.2467 65.4599,-56.98003 -8.9194,-10.24675 z"
         id="path218" />
    </clipPath>
    <clipPath
       clipPathUnits="userSpaceOnUse"
       id="clipPath226">
      <path
         d="M 0,0 H 425.1969 V 340.1575 H 0 Z"
         id="path224" />
    </clipPath>
    <clipPath
       clipPathUnits="userSpaceOnUse"
       id="clipPath240">
      <path
         d="m 268.7731,52.60845 h 49.94628 v 49.94629 H 268.7731 Z"
         id="path238" />
    </clipPath>
    <clipPath
       clipPathUnits="userSpaceOnUse"
       id="clipPath254">
      <path
         d="m 268.4619,52.23407 h 50.22564 v 51.31641 H 268.4619 Z"
         id="path252" />
    </clipPath>
    <clipPath
       clipPathUnits="userSpaceOnUse"
       id="clipPath266">
      <path
         d="m 274.7768,58.22441 h 37.93901 V 96.93877 H 274.7768 Z"
         id="path264" />
    </clipPath>
    <clipPath
       clipPathUnits="userSpaceOnUse"
       id="clipPath278">
      <path
         d="m 266.6636,92.75993 4.7833,5.49508 9.1549,-7.96895 -4.7833,-5.49508 z"
         id="path276" />
    </clipPath>
    <clipPath
       clipPathUnits="userSpaceOnUse"
       id="clipPath284">
      <path
         d="M 0,0 H 425.1969 V 340.1575 H 0 Z"
         id="path282" />
    </clipPath>
    <clipPath
       clipPathUnits="userSpaceOnUse"
       id="clipPath294">
      <path
         d="m 112.0511,58.52223 -10.8351,8.19454 57.5987,76.15923 10.8352,-8.1946 z"
         id="path292" />
    </clipPath>
    <clipPath
       clipPathUnits="userSpaceOnUse"
       id="clipPath300">
      <path
         d="M 0,0 H 425.1969 V 340.1575 H 0 Z"
         id="path298" />
    </clipPath>
    <clipPath
       clipPathUnits="userSpaceOnUse"
       id="clipPath314">
      <path
         d="m 111.2539,35.00187 -7.0837,11.59186 220.2646,134.60277 7.0837,-11.5919 z"
         id="path312" />
    </clipPath>
    <clipPath
       clipPathUnits="userSpaceOnUse"
       id="clipPath320">
      <path
         d="M 0,0 H 425.1969 V 340.1575 H 0 Z"
         id="path318" />
    </clipPath>
    <clipPath
       clipPathUnits="userSpaceOnUse"
       id="clipPath334">
      <path
         d="m 57.20755,10.38384 h 72.77519 v 72.7752 H 57.20755 Z"
         id="path332" />
    </clipPath>
    <clipPath
       clipPathUnits="userSpaceOnUse"
       id="clipPath348">
      <path
         d="m 56.97542,9.534033 h 73.23947 v 74.8853 H 56.97542 Z"
         id="path346" />
    </clipPath>
    <clipPath
       clipPathUnits="userSpaceOnUse"
       id="clipPath360">
      <path
         d="m 64.23625,16.79892 h 58.71781 V 76.74394 H 64.23625 Z"
         id="path358" />
    </clipPath>
    <clipPath
       clipPathUnits="userSpaceOnUse"
       id="clipPath372">
      <path
         d="m 115.0412,67.61221 -6.008,4.54381 7.3214,9.6806 6.008,-4.54382 z"
         id="path370" />
    </clipPath>
    <clipPath
       clipPathUnits="userSpaceOnUse"
       id="clipPath378">
      <path
         d="M 0,0 H 425.1969 V 340.1575 H 0 Z"
         id="path376" />
    </clipPath>
    <clipPath
       clipPathUnits="userSpaceOnUse"
       id="clipPath388">
      <path
         d="m 125.6463,47.44396 -3.8421,6.29427 11.8159,7.21243 3.842,-6.29427 z"
         id="path386" />
    </clipPath>
    <clipPath
       clipPathUnits="userSpaceOnUse"
       id="clipPath394">
      <path
         d="M 0,0 H 425.1969 V 340.1575 H 0 Z"
         id="path392" />
    </clipPath>
    <clipPath
       clipPathUnits="userSpaceOnUse"
       id="clipPath404">
      <path
         d="m 311.4078,151.0585 h 72.77519 v 72.7752 H 311.4078 Z"
         id="path402" />
    </clipPath>
    <clipPath
       clipPathUnits="userSpaceOnUse"
       id="clipPath418">
      <path
         d="m 311.1756,150.2087 h 73.23947 V 225.094 H 311.1756 Z"
         id="path416" />
    </clipPath>
    <clipPath
       clipPathUnits="userSpaceOnUse"
       id="clipPath430">
      <path
         d="m 318.4365,157.4736 h 58.71781 v 59.94502 H 318.4365 Z"
         id="path428" />
    </clipPath>
    <clipPath
       clipPathUnits="userSpaceOnUse"
       id="clipPath442">
      <path
         d="m 306.0899,177.8566 -0.5147,7.5509 12.1093,0.8256 0.5147,-7.551 z"
         id="path440" />
    </clipPath>
    <clipPath
       clipPathUnits="userSpaceOnUse"
       id="clipPath448">
      <path
         d="M 0,0 H 425.1969 V 340.1575 H 0 Z"
         id="path446" />
    </clipPath>
    <clipPath
       clipPathUnits="userSpaceOnUse"
       id="clipPath458">
      <path
         d="m 317.7909,219.5329 5.793,4.9129 7.8503,-9.2569 -5.793,-4.9128 z"
         id="path456" />
    </clipPath>
    <clipPath
       clipPathUnits="userSpaceOnUse"
       id="clipPath464">
      <path
         d="M 0,0 H 425.1969 V 340.1575 H 0 Z"
         id="path462" />
    </clipPath>
    <clipPath
       clipPathUnits="userSpaceOnUse"
       id="clipPath474">
      <path
         d="m 312.8424,161.9114 -3.9114,6.4079 10.3599,6.3237 3.9114,-6.4079 z"
         id="path472" />
    </clipPath>
    <clipPath
       clipPathUnits="userSpaceOnUse"
       id="clipPath480">
      <path
         d="M 0,0 H 425.1969 V 340.1575 H 0 Z"
         id="path478" />
    </clipPath>
    <clipPath
       clipPathUnits="userSpaceOnUse"
       id="clipPath490">
      <path
         d="m 85.18073,240.7543 7.52898,11.3077 72.23799,-48.0978 -7.529,-11.3077 z"
         id="path488" />
    </clipPath>
    <clipPath
       clipPathUnits="userSpaceOnUse"
       id="clipPath496">
      <path
         d="M 0,0 H 425.1969 V 340.1575 H 0 Z"
         id="path494" />
    </clipPath>
    <clipPath
       clipPathUnits="userSpaceOnUse"
       id="clipPath510">
      <path
         d="m 138.3084,115.4895 h 112 v 112 h -112 z"
         id="path508" />
    </clipPath>
    <clipPath
       clipPathUnits="userSpaceOnUse"
       id="clipPath524">
      <path
         d="m 137.8084,114.021 h 113 v 115.5807 h -113 z"
         id="path522" />
    </clipPath>
    <clipPath
       clipPathUnits="userSpaceOnUse"
       id="clipPath536">
      <path
         d="m 147.8084,123.9958 h 93.00001 v 94.98756 H 147.8084 Z"
         id="path534" />
    </clipPath>
    <clipPath
       clipPathUnits="userSpaceOnUse"
       id="clipPath548">
      <path
         d="m 156.6162,122.6026 -5.9613,4.5085 7.3214,9.6806 5.9613,-4.5085 z"
         id="path546" />
    </clipPath>
    <clipPath
       clipPathUnits="userSpaceOnUse"
       id="clipPath554">
      <path
         d="M 0,0 H 425.1969 V 340.1575 H 0 Z"
         id="path552" />
    </clipPath>
    <clipPath
       clipPathUnits="userSpaceOnUse"
       id="clipPath564">
      <path
         d="m 221.7236,131.5924 5.0029,5.7475 9.1549,-7.9689 -5.0029,-5.7475 z"
         id="path562" />
    </clipPath>
    <clipPath
       clipPathUnits="userSpaceOnUse"
       id="clipPath570">
      <path
         d="M 0,0 H 425.1969 V 340.1575 H 0 Z"
         id="path568" />
    </clipPath>
    <clipPath
       clipPathUnits="userSpaceOnUse"
       id="clipPath580">
      <path
         d="m 241.8024,173.5816 -0.5062,7.4255 12.1093,0.8256 0.5062,-7.4256 z"
         id="path578" />
    </clipPath>
    <clipPath
       clipPathUnits="userSpaceOnUse"
       id="clipPath586">
      <path
         d="M 0,0 H 425.1969 V 340.1575 H 0 Z"
         id="path584" />
    </clipPath>
    <clipPath
       clipPathUnits="userSpaceOnUse"
       id="clipPath596">
      <path
         d="m 224.7269,210.2715 -5.7969,4.3842 7.3214,9.6806 5.7969,-4.3842 z"
         id="path594" />
    </clipPath>
    <clipPath
       clipPathUnits="userSpaceOnUse"
       id="clipPath602">
      <path
         d="M 0,0 H 425.1969 V 340.1575 H 0 Z"
         id="path600" />
    </clipPath>
    <clipPath
       clipPathUnits="userSpaceOnUse"
       id="clipPath612">
      <path
         d="m 143.8582,205.394 4.1503,6.2231 10.0978,-6.7344 -4.1503,-6.2231 z"
         id="path610" />
    </clipPath>
    <clipPath
       clipPathUnits="userSpaceOnUse"
       id="clipPath618">
      <path
         d="M 0,0 H 425.1969 V 340.1575 H 0 Z"
         id="path616" />
    </clipPath>
    <clipPath
       clipPathUnits="userSpaceOnUse"
       id="clipPath628">
      <path
         d="m 105.6957,250.6468 -1.761,13.533 148.3228,19.3003 1.7609,-13.5331 z"
         id="path626" />
    </clipPath>
    <clipPath
       clipPathUnits="userSpaceOnUse"
       id="clipPath634">
      <path
         d="M 0,0 H 425.1969 V 340.1575 H 0 Z"
         id="path632" />
    </clipPath>
    <clipPath
       clipPathUnits="userSpaceOnUse"
       id="clipPath648">
      <path
         d="m 241.7891,255.759 h 72.51523 v 72.51524 H 241.7891 Z"
         id="path646" />
    </clipPath>
    <clipPath
       clipPathUnits="userSpaceOnUse"
       id="clipPath662">
      <path
         d="m 240.4961,253.8314 h 75.1013 v 76.79204 h -75.1013 z"
         id="path660" />
    </clipPath>
    <clipPath
       clipPathUnits="userSpaceOnUse"
       id="clipPath674">
      <path
         d="m 247.0307,260.3491 h 62.03207 v 63.335 H 247.0307 Z"
         id="path672" />
    </clipPath>
    <clipPath
       clipPathUnits="userSpaceOnUse"
       id="clipPath686">
      <path
         d="m 40.86187,219.724 h 70.86724 v 70.86724 H 40.86187 Z"
         id="path684" />
    </clipPath>
    <clipPath
       clipPathUnits="userSpaceOnUse"
       id="clipPath700">
      <path
         d="m 40.78175,219.0435 h 71.55575 v 73.16097 H 40.78175 Z"
         id="path698" />
    </clipPath>
    <clipPath
       clipPathUnits="userSpaceOnUse"
       id="clipPath712">
      <path
         d="m 48.20157,226.479 h 56.18786 v 57.35727 H 48.20157 Z"
         id="path710" />
    </clipPath>
    <clipPath
       clipPathUnits="userSpaceOnUse"
       id="clipPath724">
      <path
         d="m 256.9831,252.8429 -6.0634,4.5858 7.3213,9.6806 6.0634,-4.5858 z"
         id="path722" />
    </clipPath>
    <clipPath
       clipPathUnits="userSpaceOnUse"
       id="clipPath730">
      <path
         d="M 0,0 H 425.1969 V 340.1575 H 0 Z"
         id="path728" />
    </clipPath>
    <clipPath
       clipPathUnits="userSpaceOnUse"
       id="clipPath740">
      <path
         d="m 283.2988,259.7589 5.5902,5.0051 8.0961,-9.0427 -5.5903,-5.0051 z"
         id="path738" />
    </clipPath>
    <clipPath
       clipPathUnits="userSpaceOnUse"
       id="clipPath746">
      <path
         d="M 0,0 H 425.1969 V 340.1575 H 0 Z"
         id="path744" />
    </clipPath>
    <clipPath
       clipPathUnits="userSpaceOnUse"
       id="clipPath756">
      <path
         d="m 97.83813,235.8017 4.29267,6.4365 10.0977,-6.7343 -4.2926,-6.4366 z"
         id="path754" />
    </clipPath>
    <clipPath
       clipPathUnits="userSpaceOnUse"
       id="clipPath762">
      <path
         d="M 0,0 H 425.1969 V 340.1575 H 0 Z"
         id="path760" />
    </clipPath>
    <clipPath
       clipPathUnits="userSpaceOnUse"
       id="clipPath772">
      <path
         d="m 240.3642,271.1681 -0.9827,7.5661 12.0364,1.5632 0.9826,-7.566 z"
         id="path770" />
    </clipPath>
    <clipPath
       clipPathUnits="userSpaceOnUse"
       id="clipPath778">
      <path
         d="M 0,0 H 425.1969 V 340.1575 H 0 Z"
         id="path776" />
    </clipPath>
    <clipPath
       clipPathUnits="userSpaceOnUse"
       id="clipPath788">
      <path
         d="m 105.849,253.7853 -0.9608,7.398 12.0363,1.5632 0.9608,-7.398 z"
         id="path786" />
    </clipPath>
    <clipPath
       clipPathUnits="userSpaceOnUse"
       id="clipPath794">
      <path
         d="M 0,0 H 425.1969 V 340.1575 H 0 Z"
         id="path792" />
    </clipPath>
  </defs>
  <sodipodi:namedview
     id="namedview134"
     pagecolor="#ffffff"
     bordercolor="#000000"
     borderopacity="0.25"
     inkscape:showpageshadow="2"
     inkscape:pageopacity="0.0"
     inkscape:pagecheckerboard="0"
     inkscape:deskcolor="#d1d1d1"
     showgrid="false"
     inkscape:zoom="0.52034718"
     inkscape:cx="284.42548"
     inkscape:cy="240.22423"
     inkscape:window-width="1419"
     inkscape:window-height="896"
     inkscape:window-x="0"
     inkscape:window-y="38"
     inkscape:window-maximized="0"
     inkscape:current-layer="g140">
    <inkscape:page
       x="0"
       y="0"
       id="page138"
       width="566.9292"
       height="453.54333" />
  </sodipodi:namedview>
  <g
     id="g140"
     inkscape:groupmode="layer"
     inkscape:label="Page 1"
     transform="matrix(1.3333333,0,0,-1.3333333,0,453.54333)">
    <g
       id="g142" />
    <g
       id="g144"
       transform="matrix(0.87472652,0,0,1,27.964595,0)" />
    <g
       id="g154">
      <g
         id="g156"
         clip-path="url(#clipPath160)">
        <g
           id="g162"
           clip-path="url(#clipPath166)">
          <path
             d="m 226.5569,211.629 -6.8467,5.1791 38.2993,50.6315 6.8467,-5.1791 z"
             style="fill:#ffffff;fill-opacity:1;fill-rule:nonzero;stroke:none"
             id="path168" />
          <g
             id="g170"
             transform="matrix(-0.7975312,0.6032777,0.6032777,0.7975312,226.5569,211.629)">
            <path
               d="M 0,0 H 8.584941 V 63.4853 H 0 Z"
               style="fill:none;stroke:#000000;stroke-width:3;stroke-linecap:butt;stroke-linejoin:miter;stroke-miterlimit:4;stroke-dasharray:none;stroke-opacity:1"
               id="path172" />
          </g>
        </g>
      </g>
    </g>
    <g
       id="g174">
      <g
         id="g176"
         clip-path="url(#clipPath180)">
        <g
           id="g182"
           clip-path="url(#clipPath186)">
          <path
             d="m 248.2727,173.3689 -0.5832,8.5651 68.3227,4.6518 0.5832,-8.5651 z"
             style="fill:#ffffff;fill-opacity:1;fill-rule:nonzero;stroke:none"
             id="path188" />
          <g
             id="g190"
             transform="matrix(-0.06792803,0.9976902,0.9976902,0.06792803,248.2727,173.3689)">
            <path
               d="M 0,0 H 8.584941 V 68.48086 H 0 Z"
               style="fill:none;stroke:#000000;stroke-width:3;stroke-linecap:butt;stroke-linejoin:miter;stroke-miterlimit:4;stroke-dasharray:none;stroke-opacity:1"
               id="path192" />
          </g>
        </g>
      </g>
    </g>
    <g
       id="g194">
      <g
         id="g196"
         clip-path="url(#clipPath200)">
        <g
           id="g202"
           clip-path="url(#clipPath206)">
          <path
             d="m 280.5036,262.6855 6.5465,5.5538 47.2622,-55.7102 -6.5465,-5.5538 z"
             style="fill:#ffffff;fill-opacity:1;fill-rule:nonzero;stroke:none"
             id="path208" />
          <g
             id="g210"
             transform="matrix(0.762557,0.646921,0.646921,-0.762557,280.5036,262.6855)">
            <path
               d="M 0,0 H 8.584941 V 73.05712 H 0 Z"
               style="fill:none;stroke:#000000;stroke-width:3;stroke-linecap:butt;stroke-linejoin:miter;stroke-miterlimit:4;stroke-dasharray:none;stroke-opacity:1"
               id="path212" />
          </g>
        </g>
      </g>
    </g>
    <g
       id="g214">
      <g
         id="g216"
         clip-path="url(#clipPath220)">
        <g
           id="g222"
           clip-path="url(#clipPath226)">
          <path
             d="m 223.9826,128.9433 5.6365,6.4753 61.6886,-53.69721 -5.6366,-6.47538 z"
             style="fill:#ffffff;fill-opacity:1;fill-rule:nonzero;stroke:none"
             id="path228" />
          <g
             id="g230"
             transform="matrix(0.6565619,0.7542721,0.7542721,-0.6565619,223.9826,128.9433)">
            <path
               d="M 0,0 H 8.584941 V 81.78551 H 0 Z"
               style="fill:none;stroke:#000000;stroke-width:3;stroke-linecap:butt;stroke-linejoin:miter;stroke-miterlimit:4;stroke-dasharray:none;stroke-opacity:1"
               id="path232" />
          </g>
        </g>
      </g>
    </g>
    <g
       id="g234">
      <g
         id="g236"
         clip-path="url(#clipPath240)">
        <path
           d="m 308.5765,92.41184 c 8.1905,-8.19052 8.1905,-21.46998 0,-29.6605 -8.1905,-8.19052 -21.47,-8.19052 -29.6605,0 -8.1905,8.19052 -8.1905,21.46998 0,29.6605 8.1905,8.19056 21.47,8.19056 29.6605,0 z"
           style="fill:#3366cc;fill-opacity:1;fill-rule:nonzero;stroke:none"
           id="path242" />
        <g
           id="g244"
           transform="matrix(1,0,0,-1,272.7731,98.55473)">
          <path
             d="m 35.80339,6.142891 c 8.19052,8.190519 8.19052,21.469979 0,29.660499 -8.19052,8.19053 -21.46998,8.19053 -29.660499,0 -8.190521,-8.19052 -8.190521,-21.46998 0,-29.660499 8.190519,-8.190521 21.469979,-8.190521 29.660499,0 z"
             style="fill:none;stroke:#ffffff;stroke-width:6;stroke-linecap:butt;stroke-linejoin:miter;stroke-miterlimit:4;stroke-dasharray:none;stroke-opacity:1"
             id="path246" />
        </g>
      </g>
    </g>
    <g
       id="g248">
      <g
         id="g250"
         clip-path="url(#clipPath254)">
        <g
           id="g256"
           transform="matrix(1,0,0,-1,270.9619,101.0505)">
          <path
             d="m 38.60249,6.782882 c 8.83086,9.043838 8.83086,23.706808 0,32.750658 -8.83085,9.04383 -23.1485,9.04383 -31.979349,0 -8.830855,-9.04385 -8.830855,-23.70682 0,-32.750658 8.830849,-9.043842 23.148499,-9.043842 31.979349,0 z"
             style="fill:none;stroke:#000000;stroke-width:3;stroke-linecap:butt;stroke-linejoin:miter;stroke-miterlimit:4;stroke-dasharray:none;stroke-opacity:1"
             id="path258" />
        </g>
      </g>
    </g>
    <g
       id="g260">
      <g
         id="g262"
         clip-path="url(#clipPath266)">
        <g
           id="g268"
           transform="matrix(1,0,0,-1,276.7768,94.93877)">
          <path
             d="m 28.96875,5.0838 c 6.62701,6.7784 6.62701,17.76836 0,24.54676 -6.627,6.7784 -17.37149,6.7784 -23.998498,0 -6.627003,-6.7784 -6.627003,-17.76836 0,-24.54676 6.627008,-6.7784 17.371498,-6.7784 23.998498,0 z"
             style="fill:none;stroke:#000000;stroke-width:2;stroke-linecap:butt;stroke-linejoin:miter;stroke-miterlimit:4;stroke-dasharray:none;stroke-opacity:1"
             id="path270" />
        </g>
      </g>
    </g>
    <g
       id="g272">
      <g
         id="g274"
         clip-path="url(#clipPath278)">
        <g
           id="g280"
           clip-path="url(#clipPath284)">
          <path
             d="m 268.0745,92.85764 3.4701,3.98654 7.6463,-6.65583 -3.4701,-3.98654 z"
             style="fill:#ffffff;fill-opacity:1;fill-rule:nonzero;stroke:none"
             id="path286" />
        </g>
      </g>
    </g>
    <g
       id="g288">
      <g
         id="g290"
         clip-path="url(#clipPath294)">
        <g
           id="g296"
           clip-path="url(#clipPath300)">
          <path
             d="m 111.5652,62.02421 -6.8472,5.1785 54.5827,72.17129 6.8472,-5.1785 z"
             style="fill:#ffffff;fill-opacity:1;fill-rule:nonzero;stroke:none"
             id="path302" />
          <g
             id="g304"
             transform="matrix(-0.7975839,0.6032081,0.6032081,0.7975839,111.5652,62.02421)">
            <path
               d="M 0,0 H 8.584941 V 90.48737 H 0 Z"
               style="fill:none;stroke:#000000;stroke-width:3;stroke-linecap:butt;stroke-linejoin:miter;stroke-miterlimit:4;stroke-dasharray:none;stroke-opacity:1"
               id="path306" />
          </g>
        </g>
      </g>
    </g>
    <g
       id="g308">
      <g
         id="g310"
         clip-path="url(#clipPath314)">
        <g
           id="g316"
           clip-path="url(#clipPath320)">
          <path
             d="m 112.0836,38.43869 -4.4766,7.32542 215.9981,131.99549 4.4766,-7.3254 z"
             style="fill:#ffffff;fill-opacity:1;fill-rule:nonzero;stroke:none"
             id="path322" />
          <g
             id="g324"
             transform="matrix(-0.5214405,0.8532877,0.8532877,0.5214405,112.0836,38.43869)">
            <path
               d="M 0,0 H 8.584941 V 253.1363 H 0 Z"
               style="fill:none;stroke:#000000;stroke-width:3;stroke-linecap:butt;stroke-linejoin:miter;stroke-miterlimit:4;stroke-dasharray:none;stroke-opacity:1"
               id="path326" />
          </g>
        </g>
      </g>
    </g>
    <g
       id="g328">
      <g
         id="g330"
         clip-path="url(#clipPath334)">
        <path
           d="m 116.1431,69.31937 c 12.4529,-12.45288 12.4529,-32.64299 0,-45.09587 -12.4529,-12.45289 -32.64301,-12.45289 -45.09589,0 -12.45288,12.45288 -12.45288,32.64299 0,45.09587 12.45288,12.45289 32.64299,12.45289 45.09589,0 z"
           style="fill:#3366cc;fill-opacity:1;fill-rule:nonzero;stroke:none"
           id="path336" />
        <g
           id="g338"
           transform="matrix(1,0,0,-1,61.70755,78.65903)">
          <path
             d="m 54.43553,9.339662 c 12.45288,12.452878 12.45288,32.642998 0,45.095878 -12.45288,12.45288 -32.64299,12.45288 -45.095869,0 -12.452881,-12.45288 -12.452881,-32.643 0,-45.095878 12.452879,-12.452883 32.642989,-12.452883 45.095869,0 z"
             style="fill:none;stroke:#ffffff;stroke-width:7;stroke-linecap:butt;stroke-linejoin:miter;stroke-miterlimit:4;stroke-dasharray:none;stroke-opacity:1"
             id="path340" />
        </g>
      </g>
    </g>
    <g
       id="g342">
      <g
         id="g344"
         clip-path="url(#clipPath348)">
        <g
           id="g350"
           transform="matrix(1,0,0,-1,59.47542,81.91933)">
          <path
             d="m 58.24603,10.23447 c 13.32458,13.64595 13.32458,35.77041 0,49.41637 -13.32459,13.64594 -34.92801,13.64594 -48.252592,0 -13.324584,-13.64596 -13.324584,-35.77042 0,-49.41637 13.324582,-13.645958 34.928002,-13.645958 48.252592,0 z"
             style="fill:none;stroke:#000000;stroke-width:3;stroke-linecap:butt;stroke-linejoin:miter;stroke-miterlimit:4;stroke-dasharray:none;stroke-opacity:1"
             id="path352" />
        </g>
      </g>
    </g>
    <g
       id="g354">
      <g
         id="g356"
         clip-path="url(#clipPath360)">
        <g
           id="g362"
           transform="matrix(1,0,0,-1,66.73625,74.24394)">
          <path
             d="m 45.85101,8.046512 c 10.48906,10.728678 10.48906,28.123318 0,38.851998 -10.48905,10.72868 -27.49516,10.72868 -37.984219,0 -10.489054,-10.72868 -10.489054,-28.12332 0,-38.851998 10.489059,-10.728683 27.495169,-10.728683 37.984219,0 z"
             style="fill:none;stroke:#000000;stroke-width:3;stroke-linecap:butt;stroke-linejoin:miter;stroke-miterlimit:4;stroke-dasharray:none;stroke-opacity:1"
             id="path364" />
        </g>
      </g>
    </g>
    <g
       id="g366">
      <g
         id="g368"
         clip-path="url(#clipPath372)">
        <g
           id="g374"
           clip-path="url(#clipPath378)">
          <path
             d="m 114.8468,69.013 -4.4128,3.3374 6.115,8.08543 4.4128,-3.3374 z"
             style="fill:#ffffff;fill-opacity:1;fill-rule:nonzero;stroke:none"
             id="path380" />
        </g>
      </g>
    </g>
    <g
       id="g382">
      <g
         id="g384"
         clip-path="url(#clipPath388)">
        <g
           id="g390"
           clip-path="url(#clipPath394)">
          <path
             d="m 125.9788,48.81852 -2.8,4.58717 10.1087,6.17041 2.8,-4.58717 z"
             style="fill:#ffffff;fill-opacity:1;fill-rule:nonzero;stroke:none"
             id="path396" />
        </g>
      </g>
    </g>
    <g
       id="g398">
      <g
         id="g400"
         clip-path="url(#clipPath404)">
        <path
           d="m 370.3433,209.9941 c 12.4529,-12.4529 12.4529,-32.643 0,-45.0959 -12.4529,-12.4529 -32.643,-12.4529 -45.0959,0 -12.4529,12.4529 -12.4529,32.643 0,45.0959 12.4529,12.4529 32.643,12.4529 45.0959,0 z"
           style="fill:#3366cc;fill-opacity:1;fill-rule:nonzero;stroke:none"
           id="path406" />
        <g
           id="g408"
           transform="matrix(1,0,0,-1,315.9078,219.3337)">
          <path
             d="m 54.43553,9.339662 c 12.45288,12.452878 12.45288,32.642998 0,45.095878 -12.45288,12.45288 -32.64299,12.45288 -45.095869,0 -12.452881,-12.45288 -12.452881,-32.643 0,-45.095878 12.452879,-12.452883 32.642989,-12.452883 45.095869,0 z"
             style="fill:none;stroke:#ffffff;stroke-width:7;stroke-linecap:butt;stroke-linejoin:miter;stroke-miterlimit:4;stroke-dasharray:none;stroke-opacity:1"
             id="path410" />
        </g>
      </g>
    </g>
    <g
       id="g412">
      <g
         id="g414"
         clip-path="url(#clipPath418)">
        <g
           id="g420"
           transform="matrix(1,0,0,-1,313.6756,222.594)">
          <path
             d="m 58.24603,10.23447 c 13.32458,13.64595 13.32458,35.77041 0,49.41637 -13.32459,13.64594 -34.92801,13.64594 -48.252592,0 -13.324584,-13.64596 -13.324584,-35.77042 0,-49.41637 13.324582,-13.645958 34.928002,-13.645958 48.252592,0 z"
             style="fill:none;stroke:#000000;stroke-width:3;stroke-linecap:butt;stroke-linejoin:miter;stroke-miterlimit:4;stroke-dasharray:none;stroke-opacity:1"
             id="path422" />
        </g>
      </g>
    </g>
    <g
       id="g424">
      <g
         id="g426"
         clip-path="url(#clipPath430)">
        <g
           id="g432"
           transform="matrix(1,0,0,-1,320.9365,214.9187)">
          <path
             d="m 45.85101,8.046512 c 10.48906,10.728678 10.48906,28.123318 0,38.851998 -10.48905,10.72868 -27.49516,10.72868 -37.984219,0 -10.489054,-10.72868 -10.489054,-28.12332 0,-38.851998 10.489059,-10.728683 27.495169,-10.728683 37.984219,0 z"
             style="fill:none;stroke:#000000;stroke-width:3;stroke-linecap:butt;stroke-linejoin:miter;stroke-miterlimit:4;stroke-dasharray:none;stroke-opacity:1"
             id="path434" />
        </g>
      </g>
    </g>
    <g
       id="g436">
      <g
         id="g438"
         clip-path="url(#clipPath442)">
        <g
           id="g444"
           clip-path="url(#clipPath448)">
          <path
             d="m 307.0196,178.9223 -0.3787,5.5556 10.1139,0.6895 0.3787,-5.5556 z"
             style="fill:#ffffff;fill-opacity:1;fill-rule:nonzero;stroke:none"
             id="path450" />
        </g>
      </g>
    </g>
    <g
       id="g452">
      <g
         id="g454"
         clip-path="url(#clipPath458)">
        <g
           id="g460"
           clip-path="url(#clipPath464)">
          <path
             d="m 319.2003,219.417 4.2677,3.6193 6.5568,-7.7315 -4.2677,-3.6192 z"
             style="fill:#ffffff;fill-opacity:1;fill-rule:nonzero;stroke:none"
             id="path466" />
        </g>
      </g>
    </g>
    <g
       id="g468">
      <g
         id="g470"
         clip-path="url(#clipPath474)">
        <g
           id="g476"
           clip-path="url(#clipPath480)">
          <path
             d="m 313.175,163.2859 -2.8695,4.7009 8.6528,5.2817 2.8694,-4.7009 z"
             style="fill:#ffffff;fill-opacity:1;fill-rule:nonzero;stroke:none"
             id="path482" />
        </g>
      </g>
    </g>
    <g
       id="g484">
      <g
         id="g486"
         clip-path="url(#clipPath490)">
        <g
           id="g492"
           clip-path="url(#clipPath496)">
          <path
             d="m 88.6472,241.4497 4.75791,7.1459 68.07609,-45.3268 -4.7579,-7.1459 z"
             style="fill:#ffffff;fill-opacity:1;fill-rule:nonzero;stroke:none"
             id="path498" />
          <g
             id="g500"
             transform="matrix(0.554215,0.8323735,0.8323735,-0.554215,88.6472,241.4497)">
            <path
               d="M 0,0 H 8.584941 V 81.78551 H 0 Z"
               style="fill:none;stroke:#000000;stroke-width:3;stroke-linecap:butt;stroke-linejoin:miter;stroke-miterlimit:4;stroke-dasharray:none;stroke-opacity:1"
               id="path502" />
          </g>
        </g>
      </g>
    </g>
    <g
       id="g504">
      <g
         id="g506"
         clip-path="url(#clipPath510)">
        <path
           d="m 229.6637,206.8449 c 19.5262,-19.5262 19.5262,-51.1845 0,-70.7107 -19.5262,-19.5262 -51.1845,-19.5262 -70.7107,0 -19.5262,19.5262 -19.5262,51.1845 0,70.7107 19.5262,19.5262 51.1845,19.5262 70.7107,0 z"
           style="fill:#3366cc;fill-opacity:1;fill-rule:nonzero;stroke:none"
           id="path512" />
        <g
           id="g514"
           transform="matrix(1,0,0,-1,144.3084,221.4895)">
          <path
             d="m 85.35534,14.64466 c 19.52626,19.52622 19.52626,51.18446 0,70.71068 -19.52622,19.52626 -51.18446,19.52626 -70.71068,0 -19.526214,-19.52622 -19.526214,-51.18446 0,-70.71068 19.52622,-19.526214 51.18446,-19.526214 70.71068,0 z"
             style="fill:none;stroke:#ffffff;stroke-width:10;stroke-linecap:butt;stroke-linejoin:miter;stroke-miterlimit:4;stroke-dasharray:none;stroke-opacity:1"
             id="path516" />
        </g>
      </g>
    </g>
    <g
       id="g518">
      <g
         id="g520"
         clip-path="url(#clipPath524)">
        <g
           id="g526"
           transform="matrix(1,0,0,-1,140.8084,226.6017)">
          <path
             d="m 91.33022,16.04772 c 20.89308,21.39696 20.89308,56.08828 0,77.48525 -20.89306,21.39693 -54.76738,21.39693 -75.66043,0 -20.893053,-21.39697 -20.893053,-56.08829 0,-77.48525 20.89305,-21.396959 54.76737,-21.396959 75.66043,0 z"
             style="fill:none;stroke:#000000;stroke-width:4;stroke-linecap:butt;stroke-linejoin:miter;stroke-miterlimit:4;stroke-dasharray:none;stroke-opacity:1"
             id="path528" />
        </g>
      </g>
    </g>
    <g
       id="g530">
      <g
         id="g532"
         clip-path="url(#clipPath536)">
        <g
           id="g538"
           transform="matrix(1,0,0,-1,150.8084,215.9833)">
          <path
             d="m 74.25915,13.03193 c 16.98781,17.3759 16.98781,45.5478 0,62.92371 -16.98781,17.3759 -44.53049,17.3759 -61.51829,0 -16.987812,-17.37591 -16.987812,-45.54781 0,-62.92371 16.9878,-17.375906 44.53048,-17.375906 61.51829,0 z"
             style="fill:none;stroke:#000000;stroke-width:4;stroke-linecap:butt;stroke-linejoin:miter;stroke-miterlimit:4;stroke-dasharray:none;stroke-opacity:1"
             id="path540" />
        </g>
      </g>
    </g>
    <g
       id="g542">
      <g
         id="g544"
         clip-path="url(#clipPath548)">
        <g
           id="g550"
           clip-path="url(#clipPath554)">
          <path
             d="m 156.4218,124.0034 -4.3661,3.302 6.115,8.0855 4.3661,-3.3021 z"
             style="fill:#ffffff;fill-opacity:1;fill-rule:nonzero;stroke:none"
             id="path556" />
        </g>
      </g>
    </g>
    <g
       id="g558">
      <g
         id="g560"
         clip-path="url(#clipPath564)">
        <g
           id="g566"
           clip-path="url(#clipPath570)">
          <path
             d="m 223.1344,131.6901 3.6898,4.239 7.6464,-6.6558 -3.6898,-4.239 z"
             style="fill:#ffffff;fill-opacity:1;fill-rule:nonzero;stroke:none"
             id="path572" />
        </g>
      </g>
    </g>
    <g
       id="g574">
      <g
         id="g576"
         clip-path="url(#clipPath580)">
        <g
           id="g582"
           clip-path="url(#clipPath586)">
          <path
             d="m 242.7321,174.6473 -0.3702,5.4302 10.1139,0.6895 0.3702,-5.4302 z"
             style="fill:#ffffff;fill-opacity:1;fill-rule:nonzero;stroke:none"
             id="path588" />
        </g>
      </g>
    </g>
    <g
       id="g590">
      <g
         id="g592"
         clip-path="url(#clipPath596)">
        <g
           id="g598"
           clip-path="url(#clipPath602)">
          <path
             d="m 224.5325,211.6723 -4.2017,3.1778 6.115,8.0854 4.2017,-3.1778 z"
             style="fill:#ffffff;fill-opacity:1;fill-rule:nonzero;stroke:none"
             id="path604" />
        </g>
      </g>
    </g>
    <g
       id="g606">
      <g
         id="g608"
         clip-path="url(#clipPath612)">
        <g
           id="g614"
           clip-path="url(#clipPath618)">
          <path
             d="m 145.245,205.6711 3.0406,4.5592 8.4339,-5.6247 -3.0406,-4.5592 z"
             style="fill:#ffffff;fill-opacity:1;fill-rule:nonzero;stroke:none"
             id="path620" />
        </g>
      </g>
    </g>
    <g
       id="g622">
      <g
         id="g624"
         clip-path="url(#clipPath628)">
        <g
           id="g630"
           clip-path="url(#clipPath634)">
          <path
             d="m 107.8522,253.4485 -1.1158,8.5748 143.3645,18.6551 1.1158,-8.5749 z"
             style="fill:#ffffff;fill-opacity:1;fill-rule:nonzero;stroke:none"
             id="path636" />
          <g
             id="g638"
             transform="matrix(-0.1290353,0.99164,0.99164,0.1290353,107.8522,253.4485)">
            <path
               d="M 0,0 H 8.64715 V 144.5732 H 0 Z"
               style="fill:none;stroke:#000000;stroke-width:3;stroke-linecap:butt;stroke-linejoin:miter;stroke-miterlimit:4;stroke-dasharray:none;stroke-opacity:1"
               id="path640" />
          </g>
        </g>
      </g>
    </g>
    <g
       id="g642">
      <g
         id="g644"
         clip-path="url(#clipPath648)">
        <path
           d="m 301.2099,315.1797 c 12.7926,-12.7926 12.7926,-33.5336 0,-46.3263 -12.7927,-12.7926 -33.5336,-12.7926 -46.3263,0 -12.7926,12.7927 -12.7926,33.5337 0,46.3263 12.7927,12.7927 33.5336,12.7927 46.3263,0 z"
           style="fill:#3366cc;fill-opacity:1;fill-rule:nonzero;stroke:none"
           id="path650" />
        <g
           id="g652"
           transform="matrix(1,0,0,-1,245.2891,324.7742)">
          <path
             d="m 55.92075,9.594484 c 12.79264,12.792646 12.79264,33.533626 0,46.326266 -12.79265,12.79265 -33.53362,12.79265 -46.326266,0 -12.792645,-12.79264 -12.792645,-33.53362 0,-46.326266 12.792646,-12.792645 33.533616,-12.792645 46.326266,0 z"
             style="fill:none;stroke:#ffffff;stroke-width:5;stroke-linecap:butt;stroke-linejoin:miter;stroke-miterlimit:4;stroke-dasharray:none;stroke-opacity:1"
             id="path654" />
        </g>
      </g>
    </g>
    <g
       id="g656">
      <g
         id="g658"
         clip-path="url(#clipPath662)">
        <g
           id="g664"
           transform="matrix(1,0,0,-1,242.9961,328.1235)">
          <path
             d="m 59.8352,10.5137 c 13.68813,14.01827 13.68813,36.74637 0,50.76465 -13.68813,14.01826 -35.88097,14.01826 -49.5691,0 -13.688133,-14.01828 -13.688133,-36.74638 0,-50.76465 13.68813,-14.018267 35.88097,-14.018267 49.5691,0 z"
             style="fill:none;stroke:#000000;stroke-width:3;stroke-linecap:butt;stroke-linejoin:miter;stroke-miterlimit:4;stroke-dasharray:none;stroke-opacity:1"
             id="path666" />
        </g>
      </g>
    </g>
    <g
       id="g668">
      <g
         id="g670"
         clip-path="url(#clipPath674)">
        <g
           id="g676"
           transform="matrix(1,0,0,-1,249.5307,321.1841)">
          <path
             d="m 48.67991,8.542963 c 11.13621,11.390617 11.13621,29.858457 0,41.249077 -11.1362,11.39061 -29.19155,11.39061 -40.327757,0 -11.136204,-11.39062 -11.136204,-29.85846 0,-41.249077 11.136207,-11.390617 29.191557,-11.390617 40.327757,0 z"
             style="fill:none;stroke:#000000;stroke-width:3;stroke-linecap:butt;stroke-linejoin:miter;stroke-miterlimit:4;stroke-dasharray:none;stroke-opacity:1"
             id="path678" />
        </g>
      </g>
    </g>
    <g
       id="g680">
      <g
         id="g682"
         clip-path="url(#clipPath686)">
        <path
           d="m 97.81531,276.6774 c 11.88509,-11.885 11.88509,-31.1545 0,-43.0396 -11.88507,-11.8851 -31.15457,-11.8851 -43.03964,0 -11.88506,11.8851 -11.88506,31.1546 0,43.0396 11.88507,11.8851 31.15457,11.8851 43.03964,0 z"
           style="fill:#3366cc;fill-opacity:1;fill-rule:nonzero;stroke:none"
           id="path688" />
        <g
           id="g690"
           transform="matrix(1,0,0,-1,45.86187,285.5912)">
          <path
             d="m 51.95344,8.913801 c 11.88506,11.885069 11.88506,31.154569 0,43.039639 -11.88507,11.88506 -31.15457,11.88506 -43.039639,0 -11.885068,-11.88507 -11.885068,-31.15457 0,-43.039639 11.885069,-11.885068 31.154569,-11.885068 43.039639,0 z"
             style="fill:none;stroke:#ffffff;stroke-width:8;stroke-linecap:butt;stroke-linejoin:miter;stroke-miterlimit:4;stroke-dasharray:none;stroke-opacity:1"
             id="path692" />
        </g>
      </g>
    </g>
    <g
       id="g694">
      <g
         id="g696"
         clip-path="url(#clipPath700)">
        <g
           id="g702"
           transform="matrix(1,0,0,-1,43.28175,289.7045)">
          <path
             d="m 56.80889,9.981944 c 12.99582,13.309256 12.99582,34.887826 0,48.197086 -12.99582,13.30925 -34.06621,13.30925 -47.062026,0 -12.995819,-13.30926 -12.995819,-34.88783 0,-48.197086 12.995816,-13.309258 34.066206,-13.309258 47.062026,0 z"
             style="fill:none;stroke:#000000;stroke-width:3;stroke-linecap:butt;stroke-linejoin:miter;stroke-miterlimit:4;stroke-dasharray:none;stroke-opacity:1"
             id="path704" />
        </g>
      </g>
    </g>
    <g
       id="g706">
      <g
         id="g708"
         clip-path="url(#clipPath712)">
        <g
           id="g714"
           transform="matrix(1,0,0,-1,50.70157,281.3363)">
          <path
             d="m 43.69157,7.667545 c 9.99505,10.223395 9.99505,26.798785 0,37.022185 -9.99505,10.22339 -26.20023,10.22339 -36.195281,0 -9.995052,-10.2234 -9.995052,-26.79879 0,-37.022185 9.995051,-10.223393 26.200231,-10.223393 36.195281,0 z"
             style="fill:none;stroke:#000000;stroke-width:3;stroke-linecap:butt;stroke-linejoin:miter;stroke-miterlimit:4;stroke-dasharray:none;stroke-opacity:1"
             id="path716" />
        </g>
      </g>
    </g>
    <g
       id="g718">
      <g
         id="g720"
         clip-path="url(#clipPath724)">
        <g
           id="g726"
           clip-path="url(#clipPath730)">
          <path
             d="m 256.7887,254.2437 -4.4682,3.3793 6.1149,8.0855 4.4682,-3.3793 z"
             style="fill:#ffffff;fill-opacity:1;fill-rule:nonzero;stroke:none"
             id="path732" />
        </g>
      </g>
    </g>
    <g
       id="g734">
      <g
         id="g736"
         clip-path="url(#clipPath740)">
        <g
           id="g742"
           clip-path="url(#clipPath746)">
          <path
             d="m 284.7108,259.6809 4.1003,3.671 6.7619,-7.5526 -4.1002,-3.671 z"
             style="fill:#ffffff;fill-opacity:1;fill-rule:nonzero;stroke:none"
             id="path748" />
        </g>
      </g>
    </g>
    <g
       id="g750">
      <g
         id="g752"
         clip-path="url(#clipPath756)">
        <g
           id="g758"
           clip-path="url(#clipPath762)">
          <path
             d="m 99.22493,236.0788 3.18297,4.7726 8.4338,-5.6246 -3.1829,-4.7727 z"
             style="fill:#ffffff;fill-opacity:1;fill-rule:nonzero;stroke:none"
             id="path764" />
        </g>
      </g>
    </g>
    <g
       id="g766">
      <g
         id="g768"
         clip-path="url(#clipPath772)">
        <g
           id="g774"
           clip-path="url(#clipPath778)">
          <path
             d="m 241.2271,272.2886 -0.7251,5.5827 10.053,1.3056 0.725,-5.5827 z"
             style="fill:#ffffff;fill-opacity:1;fill-rule:nonzero;stroke:none"
             id="path780" />
        </g>
      </g>
    </g>
    <g
       id="g782">
      <g
         id="g784"
         clip-path="url(#clipPath788)">
        <g
           id="g790"
           clip-path="url(#clipPath794)">
          <path
             d="m 106.7119,254.9058 -0.7033,5.4146 10.053,1.3056 0.7032,-5.4146 z"
             style="fill:#ffffff;fill-opacity:1;fill-rule:nonzero;stroke:none"
             id="path796" />
        </g>
      </g>
    </g>
  </g>
</svg>
