<?xml version="1.0" encoding="UTF-8" standalone="no"?>
<!-- Created with Vectornator (http://vectornator.io/) -->

<svg
   height="100%"
   stroke-miterlimit="10"
   style="fill-rule:nonzero;clip-rule:evenodd;stroke-linecap:round;stroke-linejoin:round;"
   version="1.1"
   viewBox="0 0 688 484"
   width="100%"
   xml:space="preserve"
   id="svg313"
   sodipodi:docname="FC6_NewLogo.svg"
   inkscape:version="1.2 (dc2aeda, 2022-05-15)"
   xmlns:inkscape="http://www.inkscape.org/namespaces/inkscape"
   xmlns:sodipodi="http://sodipodi.sourceforge.net/DTD/sodipodi-0.dtd"
   xmlns="http://www.w3.org/2000/svg"
   xmlns:svg="http://www.w3.org/2000/svg"
   xmlns:vectornator="http://vectornator.io"><sodipodi:namedview
   id="namedview315"
   pagecolor="#ffffff"
   bordercolor="#000000"
   borderopacity="0.25"
   inkscape:showpageshadow="2"
   inkscape:pageopacity="0.0"
   inkscape:pagecheckerboard="0"
   inkscape:deskcolor="#d1d1d1"
   showgrid="false"
   inkscape:zoom="0.75689799"
   inkscape:cx="254.32753"
   inkscape:cy="363.32505"
   inkscape:window-width="1728"
   inkscape:window-height="1080"
   inkscape:window-x="0"
   inkscape:window-y="37"
   inkscape:window-maximized="0"
   inkscape:current-layer="svg313" />
<defs
   id="defs132" />
<g
   id="g140"
   vectornator:layerName="g140"
   transform="matrix(1.4113529,0,0,1.4519058,-141.09671,-68.020809)">
<g
   opacity="1"
   vectornator:layerName="path"
   id="g143">
<clipPath
   clip-rule="nonzero"
   id="ClipPath">
<path
   d="M 278.954,303.143 H 414.96 V 167.136 H 278.954 Z"
   id="path134" />
</clipPath>
<g
   clip-path="url(#ClipPath)"
   id="g141">
<path
   d="m 388.443,193.654 c 22.912,22.912 22.912,60.059 0,82.971 -22.912,22.912 -60.06,22.912 -82.972,0 -22.912,-22.912 -22.912,-60.059 0,-82.971 22.912,-22.912 60.06,-22.912 82.972,0 z"
   fill="#4683b5"
   fill-rule="nonzero"
   opacity="1"
   stroke="none"
   vectornator:layerName="path"
   id="path137" />
<path
   d="m 388.443,193.654 c 22.912,22.912 22.912,60.059 0,82.971 -22.912,22.912 -60.06,22.912 -82.972,0 -22.912,-22.912 -22.912,-60.059 0,-82.971 22.912,-22.912 60.06,-22.912 82.972,0 z"
   fill="none"
   opacity="1"
   stroke="#ffffff"
   stroke-linecap="butt"
   stroke-linejoin="miter"
   stroke-width="16"
   vectornator:layerName="path"
   id="path139" />
</g>
</g>
<g
   opacity="1"
   vectornator:layerName="path"
   id="g154">
<clipPath
   clip-rule="nonzero"
   id="ClipPath_2">
<path
   d="m 375.402,137.409 h 88.291 V 49.1177 h -88.291 z"
   id="path145" />
</clipPath>
<g
   clip-path="url(#ClipPath_2)"
   id="g152">
<path
   d="m 446.049,66.7616 c 14.637,14.6364 14.637,38.3664 0,53.0034 -14.636,14.636 -38.366,14.636 -53.003,0 -14.636,-14.637 -14.636,-38.367 0,-53.0034 14.637,-14.6364 38.367,-14.6364 53.003,0 z"
   fill="#4683b5"
   fill-rule="nonzero"
   opacity="1"
   stroke="none"
   vectornator:layerName="path"
   id="path148" />
<path
   d="m 446.049,66.7616 c 14.637,14.6364 14.637,38.3664 0,53.0034 -14.636,14.636 -38.366,14.636 -53.003,0 -14.636,-14.637 -14.636,-38.367 0,-53.0034 14.637,-14.6364 38.367,-14.6364 53.003,0 z"
   fill="none"
   opacity="1"
   stroke="#ffffff"
   stroke-linecap="butt"
   stroke-linejoin="miter"
   stroke-width="10.6667"
   vectornator:layerName="path"
   id="path150" />
</g>
</g>
<g
   opacity="1"
   vectornator:layerName="path"
   id="g165">
<clipPath
   clip-rule="nonzero"
   id="ClipPath_3">
<path
   d="m 499.317,224.193 h 64.2 v -64.2 h -64.2 z"
   id="path156" />
</clipPath>
<g
   clip-path="url(#ClipPath_3)"
   id="g163">
<path
   d="m 550.815,172.695 c 10.713,10.713 10.713,28.083 0,38.797 -10.713,10.713 -28.083,10.713 -38.796,0 -10.714,-10.714 -10.714,-28.084 0,-38.797 10.713,-10.713 28.083,-10.713 38.796,0 z"
   fill="#4683b5"
   fill-rule="nonzero"
   opacity="1"
   stroke="none"
   vectornator:layerName="path"
   id="path159" />
<path
   d="m 550.815,172.695 c 10.714,10.713 10.714,28.083 0,38.797 -10.713,10.713 -28.083,10.713 -38.796,0 -10.714,-10.714 -10.714,-28.084 0,-38.797 10.713,-10.713 28.083,-10.713 38.796,0 z"
   fill="none"
   opacity="1"
   stroke="#ffffff"
   stroke-linecap="butt"
   stroke-linejoin="miter"
   stroke-width="6.66667"
   vectornator:layerName="path"
   id="path161" />
</g>
</g>
<g
   opacity="1"
   vectornator:layerName="path"
   id="g176">
<clipPath
   clip-rule="nonzero"
   id="ClipPath_4">
<path
   d="m 453.597,345.544 h 64.2 v -64.2 h -64.2 z"
   id="path167" />
</clipPath>
<g
   clip-path="url(#ClipPath_4)"
   id="g174">
<path
   d="m 505.096,294.045 c 10.713,10.714 10.713,28.084 0,38.797 -10.714,10.713 -28.084,10.713 -38.797,0 -10.713,-10.713 -10.713,-28.083 0,-38.797 10.713,-10.713 28.083,-10.713 38.797,0 z"
   fill="#4683b5"
   fill-rule="nonzero"
   opacity="1"
   stroke="none"
   vectornator:layerName="path"
   id="path170" />
<path
   d="m 505.096,294.045 c 10.713,10.714 10.713,28.084 0,38.797 -10.714,10.713 -28.084,10.713 -38.797,0 -10.713,-10.713 -10.713,-28.083 0,-38.797 10.713,-10.713 28.083,-10.713 38.797,0 z"
   fill="none"
   opacity="1"
   stroke="#ffffff"
   stroke-linecap="butt"
   stroke-linejoin="miter"
   stroke-width="6.66667"
   vectornator:layerName="path"
   id="path172" />
</g>
</g>
<g
   opacity="1"
   vectornator:layerName="path"
   id="g187">
<clipPath
   clip-rule="nonzero"
   id="ClipPath_5">
<path
   d="m 255.983,112.84 h 42.584 V 70.2558 h -42.584 z"
   id="path178" />
</clipPath>
<g
   clip-path="url(#ClipPath_5)"
   id="g185">
<path
   d="m 289.031,79.7919 c 6.492,6.4927 6.492,17.0192 0,23.5121 -6.493,6.492 -17.019,6.492 -23.512,0 -6.493,-6.4929 -6.493,-17.0194 0,-23.5121 6.493,-6.4925 17.019,-6.4925 23.512,0 z"
   fill="#4683b5"
   fill-rule="nonzero"
   opacity="1"
   stroke="none"
   vectornator:layerName="path"
   id="path181" />
<path
   d="m 289.031,79.7919 c 6.492,6.4926 6.492,17.0191 0,23.5121 -6.493,6.492 -17.019,6.492 -23.512,0 -6.493,-6.493 -6.493,-17.0195 0,-23.5121 6.493,-6.4926 17.019,-6.4926 23.512,0 z"
   fill="none"
   opacity="1"
   stroke="#ffffff"
   stroke-linecap="butt"
   stroke-linejoin="miter"
   stroke-width="6.66667"
   vectornator:layerName="path"
   id="path183" />
</g>
</g>
<g
   opacity="1"
   vectornator:layerName="path"
   id="g198">
<clipPath
   clip-rule="nonzero"
   id="ClipPath_6">
<path
   d="m 192.66,212.282 h 64.2 v -64.2 h -64.2 z"
   id="path189" />
</clipPath>
<g
   clip-path="url(#ClipPath_6)"
   id="g196">
<path
   d="m 244.158,160.784 c 10.713,10.713 10.713,28.083 0,38.796 -10.713,10.714 -28.083,10.714 -38.797,0 -10.713,-10.713 -10.713,-28.083 0,-38.796 10.714,-10.714 28.084,-10.714 38.797,0 z"
   fill="#4683b5"
   fill-rule="nonzero"
   opacity="1"
   stroke="none"
   vectornator:layerName="path"
   id="path192" />
<path
   d="m 244.158,160.784 c 10.713,10.713 10.713,28.083 0,38.796 -10.713,10.714 -28.083,10.714 -38.797,0 -10.713,-10.713 -10.713,-28.083 0,-38.796 10.714,-10.714 28.084,-10.714 38.797,0 z"
   fill="none"
   opacity="1"
   stroke="#ffffff"
   stroke-linecap="butt"
   stroke-linejoin="miter"
   stroke-width="6.66667"
   vectornator:layerName="path"
   id="path194" />
</g>
</g>
<g
   opacity="1"
   vectornator:layerName="path"
   id="g209">
<clipPath
   clip-rule="nonzero"
   id="ClipPath_7">
<path
   d="m 122.483,357.589 h 88.291 v -88.291 h -88.291 z"
   id="path200" />
</clipPath>
<g
   clip-path="url(#ClipPath_7)"
   id="g207">
<path
   d="m 193.13,286.942 c 14.637,14.637 14.637,38.367 0,53.003 -14.636,14.637 -38.367,14.637 -53.003,0 -14.636,-14.636 -14.636,-38.366 0,-53.003 14.636,-14.636 38.367,-14.636 53.003,0 z"
   fill="#4683b5"
   fill-rule="nonzero"
   opacity="1"
   stroke="none"
   vectornator:layerName="path"
   id="path203" />
<path
   d="m 193.13,286.942 c 14.637,14.637 14.637,38.367 0,53.003 -14.636,14.637 -38.366,14.637 -53.003,0 -14.636,-14.636 -14.636,-38.366 0,-53.003 14.637,-14.636 38.367,-14.636 53.003,0 z"
   fill="none"
   opacity="1"
   stroke="#ffffff"
   stroke-linecap="butt"
   stroke-linejoin="miter"
   stroke-width="10.6667"
   vectornator:layerName="path"
   id="path205" />
</g>
</g>
<g
   opacity="1"
   vectornator:layerName="path"
   id="g218">
<clipPath
   clip-rule="nonzero"
   id="ClipPath_8">
<path
   d="M 373.023,178.64 H 404.35 V 128.521 H 373.023 Z"
   id="path211" />
</clipPath>
<g
   clip-path="url(#ClipPath_8)"
   id="g216">
<path
   d="m 377.324,175.789 22.725,-44.416"
   fill="none"
   opacity="1"
   stroke="#ffffff"
   stroke-linecap="butt"
   stroke-linejoin="miter"
   stroke-width="6.66667"
   vectornator:layerName="path"
   id="path214" />
</g>
</g>
<g
   opacity="1"
   vectornator:layerName="path"
   id="g227">
<clipPath
   clip-rule="nonzero"
   id="ClipPath_9">
<path
   d="m 409.776,224.571 h 93.768 v -30.065 h -93.768 z"
   id="path220" />
</clipPath>
<g
   clip-path="url(#ClipPath_9)"
   id="g225">
<path
   d="m 411.867,219.992 89.586,-20.906"
   fill="none"
   opacity="1"
   stroke="#ffffff"
   stroke-linecap="butt"
   stroke-linejoin="miter"
   stroke-width="6.66667"
   vectornator:layerName="path"
   id="path223" />
</g>
</g>
<g
   opacity="1"
   vectornator:layerName="path"
   id="g236">
<clipPath
   clip-rule="nonzero"
   id="ClipPath_10">
<path
   d="m 402.072,302.549 h 59.787 v -38.862 h -59.787 z"
   id="path229" />
</clipPath>
<g
   clip-path="url(#ClipPath_10)"
   id="g234">
<path
   d="m 405.043,267.923 53.844,30.389"
   fill="none"
   opacity="1"
   stroke="#ffffff"
   stroke-linecap="butt"
   stroke-linejoin="miter"
   stroke-width="6.66667"
   vectornator:layerName="path"
   id="path232" />
</g>
</g>
<g
   opacity="1"
   vectornator:layerName="path"
   id="g245">
<clipPath
   clip-rule="nonzero"
   id="ClipPath_11">
<path
   d="m 492.095,287.153 h 32.92 v -68.757 h -32.92 z"
   id="path238" />
</clipPath>
<g
   clip-path="url(#ClipPath_11)"
   id="g243">
<path
   d="m 520.562,220.905 -24.014,63.74"
   fill="none"
   opacity="1"
   stroke="#ffffff"
   stroke-linecap="butt"
   stroke-linejoin="miter"
   stroke-width="6.66667"
   vectornator:layerName="path"
   id="path241" />
</g>
</g>
<g
   opacity="1"
   vectornator:layerName="path"
   id="g254">
<clipPath
   clip-rule="nonzero"
   id="ClipPath_12">
<path
   d="m 203.23,300.785 h 85.247 V 257.298 H 203.23 Z"
   id="path247" />
</clipPath>
<g
   clip-path="url(#ClipPath_12)"
   id="g252">
<path
   d="m 285.816,261.689 -79.925,34.706"
   fill="none"
   opacity="1"
   stroke="#ffffff"
   stroke-linecap="butt"
   stroke-linejoin="miter"
   stroke-width="6.66667"
   vectornator:layerName="path"
   id="path250" />
</g>
</g>
<g
   opacity="1"
   vectornator:layerName="path"
   id="g263">
<clipPath
   clip-rule="nonzero"
   id="ClipPath_13">
<path
   d="m 250.137,212.177 h 38.74 v -23.74 h -38.74 z"
   id="path256" />
</clipPath>
<g
   clip-path="url(#ClipPath_13)"
   id="g261">
<path
   d="M 286.177,207.804 252.837,192.81"
   fill="none"
   opacity="1"
   stroke="#ffffff"
   stroke-linecap="butt"
   stroke-linejoin="miter"
   stroke-width="6.66667"
   vectornator:layerName="path"
   id="path259" />
</g>
</g>
<g
   opacity="1"
   vectornator:layerName="path"
   id="g272">
<clipPath
   clip-rule="nonzero"
   id="ClipPath_14">
<path
   d="m 281.661,177.958 h 40.526 v -71.232 h -40.526 z"
   id="path265" />
</clipPath>
<g
   clip-path="url(#ClipPath_14)"
   id="g270">
<path
   d="M 317.855,175.17 285.994,109.514"
   fill="none"
   opacity="1"
   stroke="#ffffff"
   stroke-linecap="butt"
   stroke-linejoin="miter"
   stroke-width="6.66667"
   vectornator:layerName="path"
   id="path268" />
</g>
</g>
<g
   opacity="1"
   vectornator:layerName="path"
   id="g281">
<clipPath
   clip-rule="nonzero"
   id="ClipPath_15">
<path
   d="m 179.352,276.881 h 37.485 v -71.143 h -37.485 z"
   id="path274" />
</clipPath>
<g
   clip-path="url(#ClipPath_15)"
   id="g279">
<path
   d="m 212.449,208.404 -28.708,65.811"
   fill="none"
   opacity="1"
   stroke="#ffffff"
   stroke-linecap="butt"
   stroke-linejoin="miter"
   stroke-width="6.66667"
   vectornator:layerName="path"
   id="path277" />
</g>
</g>
<g
   opacity="1"
   vectornator:layerName="path"
   id="g292">
<clipPath
   clip-rule="nonzero"
   id="ClipPath_16">
<path
   d="m 255.983,378.98 h 42.584 v -42.584 h -42.584 z"
   id="path283" />
</clipPath>
<g
   clip-path="url(#ClipPath_16)"
   id="g290">
<path
   d="m 289.031,345.932 c 6.492,6.493 6.492,17.019 0,23.512 -6.493,6.492 -17.019,6.492 -23.512,0 -6.493,-6.493 -6.493,-17.019 0,-23.512 6.493,-6.493 17.019,-6.493 23.512,0 z"
   fill="#4683b5"
   fill-rule="nonzero"
   opacity="1"
   stroke="none"
   vectornator:layerName="path"
   id="path286" />
<path
   d="m 289.031,345.932 c 6.492,6.493 6.492,17.019 0,23.512 -6.493,6.492 -17.019,6.492 -23.512,0 -6.493,-6.493 -6.493,-17.019 0,-23.512 6.493,-6.493 17.019,-6.493 23.512,0 z"
   fill="none"
   opacity="1"
   stroke="#ffffff"
   stroke-linecap="butt"
   stroke-linejoin="miter"
   stroke-width="6.66667"
   vectornator:layerName="path"
   id="path288" />
</g>
</g>
<g
   opacity="1"
   vectornator:layerName="path"
   id="g301">
<clipPath
   clip-rule="nonzero"
   id="ClipPath_17">
<path
   d="m 282.916,343.306 h 35.312 v -53.181 h -35.312 z"
   id="path294" />
</clipPath>
<g
   clip-path="url(#ClipPath_17)"
   id="g299">
<path
   d="m 313.996,293.106 -26.849,47.219"
   fill="none"
   opacity="1"
   stroke="#ffffff"
   stroke-linecap="butt"
   stroke-linejoin="miter"
   stroke-width="6.66667"
   vectornator:layerName="path"
   id="path297" />
</g>
</g>
<g
   opacity="1"
   vectornator:layerName="path"
   id="g310">
<clipPath
   clip-rule="nonzero"
   id="ClipPath_18">
<path
   d="m 448.091,175.544 h 63.796 v -57.768 h -63.796 z"
   id="path303" />
</clipPath>
<g
   clip-path="url(#ClipPath_18)"
   id="g308">
<path
   d="M 508.347,171.712 451.631,121.607"
   fill="none"
   opacity="1"
   stroke="#ffffff"
   stroke-linecap="butt"
   stroke-linejoin="miter"
   stroke-width="6.66667"
   vectornator:layerName="path"
   id="path306" />
</g>
</g>
</g>
</svg>
