<?xml version="1.0" encoding="UTF-8" standalone="no"?>
<svg
   id="Livello_1"
   viewBox="0 0 236.55 200.08001"
   version="1.1"
   sodipodi:docname="FunCoup6Logo.svg"
   width="236.55"
   height="200.08"
   inkscape:export-filename="FunCoup6Logo.png"
   inkscape:export-xdpi="500"
   inkscape:export-ydpi="500"
   inkscape:version="1.2 (dc2aeda, 2022-05-15)"
   xmlns:inkscape="http://www.inkscape.org/namespaces/inkscape"
   xmlns:sodipodi="http://sodipodi.sourceforge.net/DTD/sodipodi-0.dtd"
   xmlns="http://www.w3.org/2000/svg"
   xmlns:svg="http://www.w3.org/2000/svg">
  <sodipodi:namedview
     id="namedview167"
     pagecolor="#ffffff"
     bordercolor="#000000"
     borderopacity="0.25"
     inkscape:showpageshadow="2"
     inkscape:pageopacity="0.0"
     inkscape:pagecheckerboard="0"
     inkscape:deskcolor="#d1d1d1"
     showgrid="false"
     inkscape:zoom="0.85793228"
     inkscape:cx="120.63889"
     inkscape:cy="137.53999"
     inkscape:window-width="1728"
     inkscape:window-height="1080"
     inkscape:window-x="0"
     inkscape:window-y="37"
     inkscape:window-maximized="0"
     inkscape:current-layer="Livello_1" />
  <defs
     id="defs134">
    <style
       id="style132">.cls-1{fill:#2e85ba;}</style>
  </defs>
  <g
     id="g148">
    <path
       class="cls-1"
       d="m 128.34,106.6 c -0.72,0.56 -1.42,1.15 -2.08,1.81 -8.79,8.79 -8.79,23.03 0,31.82 8.79,8.79 23.03,8.79 31.82,0 0.66,-0.66 1.25,-1.36 1.81,-2.08 l 0.13,0.13 c 0,0 0,-0.11 0,-0.3 4.24,-5.53 3.46,-12.38 3.98,-19.03 0.4,-5.14 2.98,-11.77 7.46,-16.25 4.52,-4.52 11.24,-7.03 16.41,-7.43 6.41,-0.49 13,0.26 18.41,-3.67 0.24,-0.18 0,0 0,0 l 0.24,-0.18 c 0.86,-0.64 1.7,-1.33 2.48,-2.11 8.79,-8.79 8.79,-23.03 0,-31.82 -0.84,-0.84 -1.75,-1.58 -2.69,-2.26 v 0 l -0.33,-0.24 c -5.04,-3.54 -11.12,-3.19 -17.02,-3.7 -5.9,-0.51 -12.93,-2.96 -17.49,-7.53 -4.41,-4.41 -6.95,-11.02 -7.4,-16.17 -0.57,-6.64 0.11,-13.51 -4.21,-18.99 v 0 l -0.11,-0.14 c -0.52,-0.65 -1.07,-1.27 -1.66,-1.87 -8.79,-8.79 -23.03,-8.79 -31.82,0 -6.08,6.08 -4.67,12.48 -5.62,20.45 -0.81,6.83 -4.06,12.06 -8.32,16.31 -4.38,4.38 -9.68,7.1 -13.78,7.45 -7.91,0.67 -17.19,0.68 -23.2,6.69 -8.79,8.79 -8.79,23.03 0,31.82 8.79,8.79 23.03,8.79 31.82,0 0.81,-0.81 1.64,-1.65 1.98,-2.12 0.25,-0.34 0.45,-0.63 0.45,-0.63 0,0 0.11,-0.16 0.63,-1.09 2.87,-4.5 2.77,-9.77 3.33,-14.89 0.63,-5.81 1.93,-12.99 6.7,-17.75 4.67,-4.67 11.85,-8.05 17.2,-8.86 3.82,-0.58 6.84,-0.82 11.53,0.4 4.69,1.22 10.24,3.85 14.63,8.23 4.63,4.63 6.99,10.96 7.77,16.17 0.85,5.72 0.28,6.58 0.14,7.88 -0.61,5.52 -3.51,13.26 -7.97,17.72 -4.51,4.51 -11.2,7.56 -16.44,8.01 -6.49,0.56 -13.19,-0.07 -18.59,4.07"
       id="path136" />
    <path
       d="m 155.83,157.38 -0.41,-0.3 c -5.38,-3.93 -10.94,-4.23 -17.31,-4.75 -5.11,-0.42 -11.74,-2.88 -16.2,-7.35 -6.34,-6.34 -9.07,-13.66 -9.23,-21.59 -0.11,-5.55 1.77,-13.59 7.87,-19.7 4.48,-4.48 11.11,-8.06 16.25,-8.46 6.65,-0.52 13.5,0.26 19.03,-3.98 0.19,0 0.3,0 0.3,0 L 156,91.12 c 0.72,-0.56 1.42,-1.15 2.08,-1.81 8.79,-8.79 8.79,-23.03 0,-31.82 -8.79,-8.79 -23.03,-8.79 -31.82,0 -0.66,0.66 -1.25,1.36 -1.81,2.08 l -0.13,0.18 c -4.14,5.4 -3.51,12.11 -4.07,18.59 -0.45,5.25 -4.03,12 -8.53,16.51 -5.52,5.52 -12.67,7.47 -19.27,7.61 -0.1,0 -1.39,0.05 -1.49,0.05 -0.41,0 -0.8,0 -1.19,0 -5.22,0.13 -13.27,-2.64 -19.3,-8.67 -4.38,-4.38 -6.05,-6.95 -7.65,-13.38 -0.76,-3.06 -1,-6.98 -0.2,-11.48 1.14,-6.41 3.98,-11.74 8.65,-16.41 4.67,-4.67 11.38,-7.15 17.19,-7.78 5.12,-0.56 10.39,-0.46 14.89,-3.33 0.07,-0.04 0.14,-0.09 0.14,-0.09 0.4,-0.26 1.12,-0.79 1.12,-0.79 0.9,-0.66 1.77,-1.38 2.58,-2.19 8.79,-8.79 8.79,-23.03 0,-31.82 -8.79,-8.79 -23.03,-8.79 -31.82,0 -6.01,6.01 -5.25,14.27 -5.69,22.2 -0.28,5.05 -3.86,11.57 -8.25,15.95 -4.25,4.25 -9.57,6.85 -14.52,7.15 -8.02,0.48 -16.38,-0.46 -22.45,5.62 -8.79,8.79 -8.79,23.03 0,31.82 0.6,0.6 1.23,1.15 1.87,1.66 l -0.1,0.1 c 0,0 0.09,0 0.25,0 6.36,3.88 12.4,3.27 18.99,4.21 6.2,0.88 10.47,3.31 15.17,7.4 10.4,9.02 9.09,21.85 9.09,21.85 0.17,5.8 1.17,10.68 5.55,15.69 4.06,4.63 8.95,6.58 14.72,6.58 h 2.28 c 6.55,0.05 12.7,1.32 18.8,7.01 4.44,4.14 8.22,10.77 8.78,17.33 0.63,7.4 0.78,14.34 6.42,19.98 8.79,8.79 23.03,8.79 31.82,0 8.79,-8.79 8.79,-23.03 0,-31.82 -0.71,-0.71 -1.47,-1.35 -2.25,-1.95 z"
       id="path138" />
    <circle
       class="cls-1"
       cx="193.09"
       cy="22.85"
       r="22.5"
       id="circle140" />
    <circle
       class="cls-1"
       cx="193.09"
       cy="124.32"
       r="22.5"
       id="circle142" />
    <circle
       cx="40.709999"
       cy="124.32"
       r="22.5"
       id="circle144" />
    <circle
       cx="91.269997"
       cy="175.24001"
       r="22.5"
       id="circle146" />
  </g>
</svg>
