<?xml version="1.0" encoding="UTF-8"?><svg id="Livello_1" xmlns="http://www.w3.org/2000/svg" viewBox="0 0 236.55 275.08"><defs><style>.cls-1{fill:#2e85ba;}</style></defs><g><path class="cls-1" d="m128.34,106.6c-.72.56-1.42,1.15-2.08,1.81-8.79,8.79-8.79,23.03,0,31.82,8.79,8.79,23.03,8.79,31.82,0,.66-.66,1.25-1.36,1.81-2.08l.13.13s0-.11,0-.3c4.24-5.53,3.46-12.38,3.98-19.03.4-5.14,2.98-11.77,7.46-16.25,4.52-4.52,11.24-7.03,16.41-7.43,6.41-.49,13,.26,18.41-3.67.24-.18,0,0,0,0l.24-.18c.86-.64,1.7-1.33,2.48-2.11,8.79-8.79,8.79-23.03,0-31.82-.84-.84-1.75-1.58-2.69-2.26h0l-.33-.24c-5.04-3.54-11.12-3.19-17.02-3.7s-12.93-2.96-17.49-7.53c-4.41-4.41-6.95-11.02-7.4-16.17-.57-6.64.11-13.51-4.21-18.99h0l-.11-.14c-.52-.65-1.07-1.27-1.66-1.87-8.79-8.79-23.03-8.79-31.82,0-6.08,6.08-4.67,12.48-5.62,20.45-.81,6.83-4.06,12.06-8.32,16.31-4.38,4.38-9.68,7.1-13.78,7.45-7.91.67-17.19.68-23.2,6.69-8.79,8.79-8.79,23.03,0,31.82,8.79,8.79,23.03,8.79,31.82,0,.81-.81,1.64-1.65,1.98-2.12.25-.34.45-.63.45-.63,0,0,.11-.16.63-1.09,2.87-4.5,2.77-9.77,3.33-14.89.63-5.81,1.93-12.99,6.7-17.75,4.67-4.67,11.85-8.05,17.2-8.86,3.82-.58,6.84-.82,11.53.4s10.24,3.85,14.63,8.23c4.63,4.63,6.99,10.96,7.77,16.17.85,5.72.28,6.58.14,7.88-.61,5.52-3.51,13.26-7.97,17.72-4.51,4.51-11.2,7.56-16.44,8.01-6.49.56-13.19-.07-18.59,4.07"/><path d="m155.83,157.38l-.41-.3c-5.38-3.93-10.94-4.23-17.31-4.75-5.11-.42-11.74-2.88-16.2-7.35-6.34-6.34-9.07-13.66-9.23-21.59-.11-5.55,1.77-13.59,7.87-19.7,4.48-4.48,11.11-8.06,16.25-8.46,6.65-.52,13.5.26,19.03-3.98.19,0,.3,0,.3,0l-.13-.13c.72-.56,1.42-1.15,2.08-1.81,8.79-8.79,8.79-23.03,0-31.82-8.79-8.79-23.03-8.79-31.82,0-.66.66-1.25,1.36-1.81,2.08l-.13.18c-4.14,5.4-3.51,12.11-4.07,18.59-.45,5.25-4.03,12-8.53,16.51-5.52,5.52-12.67,7.47-19.27,7.61-.1,0-1.39.05-1.49.05-.41,0-.8,0-1.19,0-5.22.13-13.27-2.64-19.3-8.67-4.38-4.38-6.05-6.95-7.65-13.38-.76-3.06-1-6.98-.2-11.48,1.14-6.41,3.98-11.74,8.65-16.41s11.38-7.15,17.19-7.78c5.12-.56,10.39-.46,14.89-3.33.07-.04.14-.09.14-.09.4-.26,1.12-.79,1.12-.79.9-.66,1.77-1.38,2.58-2.19,8.79-8.79,8.79-23.03,0-31.82s-23.03-8.79-31.82,0c-6.01,6.01-5.25,14.27-5.69,22.2-.28,5.05-3.86,11.57-8.25,15.95-4.25,4.25-9.57,6.85-14.52,7.15-8.02.48-16.38-.46-22.45,5.62-8.79,8.79-8.79,23.03,0,31.82.6.6,1.23,1.15,1.87,1.66l-.1.1s.09,0,.25,0c6.36,3.88,12.4,3.27,18.99,4.21,6.2.88,10.47,3.31,15.17,7.4,10.4,9.02,9.09,21.85,9.09,21.85.17,5.8,1.17,10.68,5.55,15.69,4.06,4.63,8.95,6.58,14.72,6.58h2.28c6.55.05,12.7,1.32,18.8,7.01,4.44,4.14,8.22,10.77,8.78,17.33.63,7.4.78,14.34,6.42,19.98,8.79,8.79,23.03,8.79,31.82,0,8.79-8.79,8.79-23.03,0-31.82-.71-.71-1.47-1.35-2.25-1.95Z"/><circle class="cls-1" cx="193.09" cy="22.85" r="22.5"/><circle class="cls-1" cx="193.09" cy="124.32" r="22.5"/><circle cx="40.71" cy="124.32" r="22.5"/><circle cx="91.27" cy="175.24" r="22.5"/></g><g><path d="m0,260.08v-42h24.9v8.28H8.28v7.08h13.74v8.28h-13.74v18.36H0Z"/><path d="m27.9,249.1v-19.02h8.28v16.74c0,1.06.25,2.01.76,2.87.51.85,1.19,1.52,2.06,2.02.86.5,1.8.75,2.82.75s1.99-.25,2.85-.75,1.54-1.17,2.04-2.02c.5-.85.75-1.8.75-2.87v-16.74h8.28l.03,30h-8.28l-.03-2.28c-1,.96-2.17,1.71-3.52,2.25s-2.77.81-4.27.81c-2.16,0-4.13-.53-5.91-1.59-1.78-1.06-3.2-2.48-4.26-4.25-1.06-1.77-1.59-3.75-1.59-5.93Z"/><path d="m89.64,241v19.08h-8.28v-16.8c0-1.06-.25-2.01-.77-2.87-.51-.85-1.19-1.52-2.04-2.03-.85-.5-1.79-.75-2.83-.75s-1.99.25-2.85.75c-.86.5-1.54,1.18-2.04,2.03-.5.85-.75,1.81-.75,2.87v16.8h-8.28l-.03-30h8.28l.03,2.22c1-.96,2.17-1.71,3.52-2.25s2.77-.81,4.27-.81c2.18,0,4.16.53,5.92,1.59,1.77,1.06,3.19,2.47,4.25,4.25,1.06,1.77,1.59,3.75,1.59,5.92Z"/><path d="m115.08,260.87c-2.84,0-5.51-.57-8.01-1.7-2.5-1.13-4.7-2.69-6.58-4.7-1.89-2-3.37-4.31-4.44-6.94-1.07-2.63-1.6-5.45-1.6-8.45s.53-5.84,1.6-8.47c1.07-2.63,2.55-4.94,4.44-6.93,1.89-1.99,4.08-3.55,6.58-4.68,2.5-1.13,5.17-1.7,8.01-1.7,3.4,0,6.53.79,9.39,2.36,2.86,1.57,5.23,3.67,7.11,6.29l-7.38,3.99c-1.12-1.32-2.47-2.37-4.05-3.17-1.58-.79-3.27-1.18-5.07-1.18-1.7,0-3.3.35-4.8,1.05-1.5.7-2.82,1.67-3.95,2.91s-2.01,2.67-2.66,4.29c-.64,1.62-.96,3.37-.96,5.25s.32,3.61.96,5.24c.64,1.63,1.53,3.06,2.66,4.29,1.13,1.23,2.45,2.2,3.95,2.91,1.5.71,3.1,1.07,4.8,1.07,1.82,0,3.51-.4,5.08-1.2,1.57-.8,2.92-1.86,4.04-3.18l7.38,4.02c-1.88,2.6-4.25,4.69-7.11,6.27-2.86,1.58-5.99,2.37-9.39,2.37Z"/><path d="m151.38,260.87c-2.76,0-5.28-.71-7.54-2.13-2.27-1.42-4.08-3.33-5.43-5.72-1.35-2.39-2.03-5.03-2.03-7.93,0-2.2.39-4.25,1.17-6.17.78-1.91,1.86-3.59,3.23-5.04,1.37-1.45,2.96-2.58,4.79-3.41,1.82-.82,3.76-1.23,5.82-1.23,2.76,0,5.28.71,7.54,2.13s4.08,3.33,5.43,5.73c1.35,2.4,2.02,5.06,2.02,7.98,0,2.18-.39,4.22-1.17,6.12s-1.86,3.58-3.22,5.02c-1.37,1.45-2.96,2.59-4.77,3.41-1.81.82-3.75,1.23-5.83,1.23Zm0-8.28c1.28,0,2.43-.34,3.45-1.04,1.02-.69,1.82-1.6,2.4-2.75.58-1.14.87-2.38.87-3.72s-.3-2.64-.91-3.79c-.61-1.15-1.43-2.06-2.45-2.75-1.02-.68-2.14-1.02-3.36-1.02s-2.4.35-3.42,1.05c-1.02.7-1.83,1.62-2.42,2.76s-.88,2.39-.88,3.75.3,2.7.92,3.83c.61,1.13,1.42,2.02,2.45,2.68,1.02.66,2.14.99,3.36.99Z"/><path d="m170.58,249.1v-19.02h8.28v16.74c0,1.06.25,2.01.77,2.87.51.85,1.19,1.52,2.05,2.02.86.5,1.8.75,2.82.75s1.99-.25,2.85-.75c.86-.5,1.54-1.17,2.04-2.02.5-.85.75-1.8.75-2.87v-16.74h8.28l.03,30h-8.28l-.03-2.28c-1,.96-2.17,1.71-3.53,2.25-1.35.54-2.77.81-4.27.81-2.16,0-4.13-.53-5.91-1.59-1.78-1.06-3.2-2.48-4.26-4.25-1.06-1.77-1.59-3.75-1.59-5.93Z"/><path d="m212.73,275.08h-8.28v-45h8.28v3.24c.96-1.18,2.1-2.15,3.42-2.9,1.32-.75,2.86-1.12,4.62-1.12,2.18,0,4.22.41,6.13,1.23s3.58,1.96,5.03,3.41c1.44,1.45,2.57,3.12,3.39,5.02.82,1.9,1.23,3.94,1.23,6.12s-.41,4.23-1.23,6.15-1.95,3.6-3.39,5.05c-1.44,1.45-3.12,2.58-5.03,3.41-1.91.82-3.96,1.23-6.13,1.23-1.76,0-3.3-.38-4.62-1.14-1.32-.76-2.46-1.72-3.42-2.88v18.18Zm7.92-37.83c-1.36,0-2.58.36-3.67,1.07s-1.95,1.66-2.58,2.83-.95,2.49-.95,3.93.32,2.75.95,3.95c.63,1.19,1.49,2.13,2.58,2.83s2.31,1.05,3.67,1.05,2.61-.35,3.74-1.05,2.03-1.64,2.7-2.82c.67-1.18,1-2.5,1-3.96s-.33-2.72-.99-3.92c-.66-1.19-1.56-2.14-2.68-2.85-1.13-.71-2.39-1.07-3.77-1.07Z"/></g></svg>